<svg width="92" height="169" viewBox="0 0 92 169" fill="none" xmlns="http://www.w3.org/2000/svg">
<g clip-path="url(#clip0_1_348)">
<path d="M-35.9679 100.515C-34.2083 93.9096 -32.1398 88.9042 -29.3795 84.3582C-26.9493 80.3529 -27.5144 77.255 -30.2473 73.3972C-34.9736 66.709 -38.9832 59.5202 -43.6304 52.7685C-46.5253 48.5595 -45.1775 46.5907 -41.3836 44.7657C-26.2241 37.4678 -10.0236 33.9492 6.88905 32.8358C16.3108 32.218 25.7625 32.4487 35.2272 32.6983C38.0823 32.7744 39.4877 33.5211 38.1412 36.8203C33.5105 48.168 28.2061 59.044 19.9554 68.0759C16.6256 71.7274 13.1542 75.134 8.3788 76.92C5.40956 78.0315 3.43134 80.1923 2.14058 83.2407C0.54911 87.013 -1.47613 90.5743 -3.65727 94.9173C12.6077 83.7643 28.2233 73.0567 43.8389 62.349C50.0292 58.1043 53.8112 59.8006 55.7087 67.6519C55.9166 68.5171 56.3007 69.4093 55.5399 70.0881C54.7731 70.7711 53.8756 70.4713 53.2254 69.8169C50.3912 66.9993 48.1778 68.8683 45.9333 70.3981C37.4169 76.2194 28.9064 82.0366 20.4244 87.9081C19.358 88.6394 17.495 89.1033 17.7376 90.6195C18.0355 92.523 20.1334 92.4528 21.5592 92.7694C39.3628 96.7492 57.1828 100.625 74.983 104.626C76.7007 105.01 79.2997 104.56 79.7776 106.968C80.177 108.969 77.8644 109.556 76.552 110.465C51.7704 127.541 26.9197 144.517 2.19402 161.675C-1.60608 164.308 -2.83558 163.256 -3.90256 159.005C-9.64209 136.149 -15.5472 113.332 -21.4139 90.5077C-21.8481 88.8271 -21.6524 86.2893 -23.2232 85.7485C-25.3387 85.0266 -25.9253 87.7862 -27.2059 88.9972C-30.373 91.9917 -31.2564 96.8223 -35.9885 100.511L-35.9679 100.515ZM-2.97254 98.4323C-2.97243 99.5694 -3.10914 99.9959 -2.95392 100.222C4.86325 111.725 12.7264 123.205 20.5257 134.719C22.5732 137.744 24.5117 136.636 26.6224 135.18C33.5759 130.375 40.5579 125.624 47.5286 120.844C51.0676 118.418 54.6125 115.987 59.4444 112.674C37.6618 106.8 17.3535 103.012 -2.97254 98.4323ZM9.15354 69.4274C17.7418 63.8897 22.4294 56.2656 26.552 48.0859C28.4343 44.3545 26.9536 43.447 23.5447 43.3808C17.8381 43.2723 12.2517 43.8117 6.80642 45.3361C4.55644 45.9636 3.59807 46.4821 5.47929 49.1489C9.35652 54.6628 9.15787 60.9006 5.53268 63.9042C1.96275 66.8605 -4.19971 65.5762 -8.94622 60.8895C-13.6695 56.224 -14.4336 56.2209 -17.7855 61.718C-19.0996 63.8765 -19.9495 66.3544 -20.8818 68.7503C-22.4016 72.6398 -21.0602 74.6599 -16.8101 75.046C-7.09972 75.9221 2.07788 74.9356 9.15786 69.4337L9.15354 69.4274ZM-8.89069 105.245C-9.1976 105.373 -9.50019 105.506 -9.8071 105.633C-6.13701 119.915 -2.47287 134.2 1.20749 148.484C1.61973 150.069 2.6384 151.311 4.17098 150.353C7.73599 148.13 11.1852 145.7 14.5433 143.176C15.845 142.2 15.3602 140.637 14.5021 139.386C6.71987 127.998 -1.09054 116.621 -8.89069 105.245ZM5.77521 39.3868C-5.35712 39.1067 -15.8809 41.6173 -26.2049 44.9431C-28.7674 45.7664 -31.1946 47.0425 -33.5645 48.3255C-35.713 49.4843 -37.0001 51.1712 -35.154 53.8252C-33.5062 56.1899 -31.7088 55.7709 -29.8212 54.4488C-28.5787 53.5784 -27.3587 52.6494 -26.0402 51.9024C-24.5122 51.0395 -22.6829 48.9809 -21.1116 50.9913C-19.4094 53.18 -22.0518 54.206 -23.3193 55.334C-24.9574 56.7901 -26.9947 57.8172 -28.4832 59.4019C-30.6045 61.6607 -28.8181 63.9211 -27.0776 65.233C-24.7309 67.0075 -24.8188 64.0817 -24.3313 63.0171C-22.8635 59.8565 -20.7933 57.2167 -18.5405 54.6643C-11.9596 47.2211 -3.37269 42.9971 5.77687 39.3765L5.77521 39.3868ZM0.173969 80.3088C-0.085766 79.9045 -0.349813 79.4939 -0.603587 79.0855C-5.32367 80.8244 -10.6154 79.507 -15.2329 81.8042C-13.4705 86.2905 -10.3222 89.8727 -7.42241 93.6162C-7.26821 93.8155 -6.8052 93.7754 -6.42522 93.8569C-4.22206 89.3416 -2.02323 84.82 0.175614 80.2985L0.173969 80.3088Z" fill="#C4A984" fill-opacity="0.44"/>
</g>
<defs>
<clipPath id="clip0_1_348">
<rect width="115.185" height="125.577" fill="white" transform="translate(-74.48 65.1394) rotate(-34.4386)"/>
</clipPath>
</defs>
</svg>
