<svg width="128" height="180" viewBox="0 0 128 180" fill="none" xmlns="http://www.w3.org/2000/svg">
<g clip-path="url(#clip0_1_350)">
<path d="M155.193 76.6058C148.657 71.0081 142.94 67.289 136.832 64.5381C131.451 62.1131 129.831 58.4995 129.922 52.5567C130.068 42.2622 129.112 31.9582 129.13 21.6541C129.139 15.2321 126.335 14.1489 121.092 14.9541C100.136 18.1651 80.7909 26.0345 62.4202 36.9041C52.188 42.9619 42.5292 49.9207 32.8705 56.9083C29.9574 59.0171 29.0289 60.7903 32.7795 63.2537C45.679 71.727 58.9427 79.2322 73.9542 82.7307C80.0171 84.1493 86.0527 85.2133 92.2885 83.6701C96.1666 82.7115 99.7624 83.5455 103.276 85.7884C107.619 88.5681 112.261 90.8206 117.623 93.7728C92.771 93.7728 68.9109 93.7728 45.0509 93.7728C35.5924 93.7728 32.8705 98.2203 36.4937 107.71C36.8942 108.754 37.1309 109.953 38.4054 110.116C39.689 110.278 40.4081 109.33 40.6175 108.189C41.5552 103.253 45.1874 103.617 48.6103 103.607C61.61 103.588 74.6005 103.569 87.6002 103.626C89.2297 103.626 91.4965 102.783 92.3249 104.527C93.3718 106.713 91.1415 108.131 89.8852 109.473C74.2182 126.257 58.4602 142.945 42.8115 159.747C41.3003 161.367 38.2779 162.748 39.4978 165.585C40.5083 167.943 43.3303 166.908 45.3422 166.917C83.267 167.003 121.192 166.936 159.117 167.147C164.943 167.176 165.471 165.211 163.55 160.045C153.227 132.267 143.104 104.412 132.935 76.577C132.189 74.5258 130.177 72.0337 131.424 70.3563C133.108 68.1038 135.684 70.548 137.878 70.8931C143.304 71.7461 147.665 76.1266 155.211 76.5866L155.193 76.6058ZM119.417 97.904C120.227 99.083 120.673 99.4281 120.673 99.7731C120.746 117.256 120.755 134.749 120.855 152.233C120.882 156.824 118.079 157.054 114.847 157.044C104.196 157.006 93.5539 157.044 82.9029 157.044C77.4955 157.044 72.0789 157.044 64.6961 157.044C83.1487 135.468 101.556 117.103 119.417 97.904ZM86.1437 76.4524C73.2715 76.8167 62.9664 72.2446 52.8525 66.6948C48.2371 64.1643 49.1292 62.1706 52.6249 59.6784C58.4784 55.5089 64.6687 52.0966 71.4144 49.8057C74.2 48.8568 75.5655 48.713 75.5109 52.8154C75.4108 61.2887 80.0626 67.6149 85.9707 68.1517C91.7878 68.6789 97.2772 62.9661 98.8703 54.7325C100.454 46.5372 101.246 45.9908 108.647 49.3073C111.551 50.6109 114.2 52.5758 116.877 54.397C121.228 57.3492 121.274 60.3973 117.132 63.8192C107.664 71.6311 97.4228 77.133 86.1437 76.462V76.4524ZM130.423 100.76C130.832 100.674 131.242 100.597 131.652 100.511C138.015 117.927 144.387 135.344 150.742 152.769C151.442 154.706 151.27 156.719 148.994 156.814C143.705 157.044 138.388 156.977 133.099 156.747C131.051 156.661 130.441 154.696 130.441 152.789C130.414 135.449 130.423 118.1 130.423 100.76ZM68.2464 42.9044C79.6166 34.6995 92.3431 29.8207 105.443 25.9291C108.693 24.961 112.125 24.5584 115.502 24.2038C118.561 23.8779 121.101 24.7118 121.073 28.7759C121.046 32.3991 118.88 33.2426 115.976 33.2138C114.064 33.1946 112.134 33.0988 110.231 33.2617C108.028 33.4534 104.66 32.6195 104.46 35.821C104.25 39.3004 107.728 38.4856 109.849 38.754C112.589 39.0991 115.438 38.7157 118.115 39.3004C121.929 40.1343 121.683 43.7479 120.81 46.3455C119.635 49.8536 117.642 46.7576 116.376 46.0004C112.598 43.7671 108.565 42.5018 104.405 41.4571C92.2612 38.4186 80.3266 40.1439 68.2373 42.8948L68.2464 42.9044ZM103.231 81.3505C103.213 80.7466 103.194 80.1331 103.167 79.5293C109.312 77.9765 113.873 72.8484 120.309 71.9474C121.674 77.8519 120.955 83.8043 120.609 89.747C120.591 90.0634 120.081 90.3509 119.744 90.7056C114.237 87.5904 108.729 84.4656 103.222 81.3409L103.231 81.3505Z" fill="#C4A984" fill-opacity="0.44"/>
</g>
<defs>
<clipPath id="clip0_1_350">
<rect width="128.175" height="186.201" fill="white" transform="matrix(-1 0 0 1 128.175 0)"/>
</clipPath>
</defs>
</svg>
