<svg width="82" height="82" viewBox="0 0 82 82" fill="none" xmlns="http://www.w3.org/2000/svg">
<path d="M78.885 40.8808C80.1477 39.4103 81.0326 37.654 81.4629 35.7641C81.8931 33.8742 81.8558 31.9079 81.3541 30.0357C80.8524 28.1636 79.9015 26.4421 78.5839 25.0206C77.2663 23.5991 75.6217 22.5206 73.7929 21.8786C74.1512 19.9737 74.0394 18.0101 73.467 16.1582C72.8946 14.3063 71.879 12.6221 70.5084 11.2516C69.1377 9.88107 67.4533 8.8657 65.6013 8.29357C63.7494 7.72144 61.7858 7.60981 59.881 7.96839C59.2394 6.13915 58.1611 4.49415 56.7396 3.1762C55.3181 1.85826 53.5964 0.907204 51.724 0.405615C49.8515 -0.0959734 47.8849 -0.132936 45.9949 0.297937C44.105 0.728811 42.3487 1.6145 40.8787 2.8781C39.4083 1.61537 37.6519 0.730478 35.762 0.3002C33.8722 -0.130078 31.9058 -0.0927509 30.0337 0.408941C28.1615 0.910632 26.44 1.86154 25.0185 3.17916C23.597 4.49679 22.5185 6.14135 21.8765 7.97016C19.9717 7.61216 18.0083 7.72428 16.1567 8.2968C14.3051 8.86932 12.6211 9.88495 11.2508 11.2556C9.88051 12.6262 8.86531 14.3105 8.29327 16.1623C7.72122 18.014 7.6096 19.9774 7.96809 21.8821C6.13927 22.5241 4.49471 23.6026 3.17708 25.0241C1.85946 26.4456 0.908546 28.1671 0.406854 30.0393C-0.0948379 31.9115 -0.13217 33.8778 0.298108 35.7677C0.728386 37.6575 1.61329 39.4139 2.87602 40.8843C1.6129 42.3548 0.72773 44.1112 0.297329 46.0013C-0.133071 47.8914 -0.0957064 49.8579 0.406205 51.7303C0.908116 53.6026 1.85939 55.3242 3.17747 56.7455C4.49555 58.1669 6.14062 59.2451 7.96986 59.8866C7.61107 61.7913 7.72255 63.7548 8.29467 65.6067C8.86679 67.4586 9.88224 69.1429 11.2529 70.5133C12.6235 71.8838 14.3079 72.899 16.1598 73.4709C18.0118 74.0427 19.9753 74.154 21.88 73.795C22.522 75.6238 23.6006 77.2683 25.022 78.586C26.4435 79.9036 28.165 80.8545 30.0372 81.3562C31.9094 81.8579 33.8757 81.8952 35.7656 81.4649C37.6554 81.0346 39.4118 80.1498 40.8823 78.887C42.3527 80.1501 44.1092 81.0353 45.9992 81.4657C47.8893 81.8961 49.8558 81.8587 51.7282 81.3568C53.6005 80.8549 55.3221 79.9036 56.7435 78.5856C58.1648 77.2675 59.243 75.6224 59.8845 73.7932C61.7893 74.1519 63.7528 74.0403 65.6048 73.4682C67.4567 72.8961 69.141 71.8807 70.5116 70.5101C71.8821 69.1395 72.8976 67.4552 73.4697 65.6033C74.0418 63.7514 74.1533 61.7878 73.7947 59.883C75.6236 59.2412 77.2683 58.1627 78.586 56.7411C79.9037 55.3196 80.8546 53.598 81.3561 51.7257C81.8577 49.8534 81.8947 47.887 81.4641 45.9971C81.0335 44.1072 80.1482 42.351 78.885 40.8808Z" fill="#D2B48C"/>
<path d="M33.5422 56.487L22.1816 45.1335C21.7505 44.7016 21.5083 44.1163 21.5083 43.5061C21.5083 42.8959 21.7505 42.3106 22.1816 41.8787L23.5618 40.4967C23.9937 40.0656 24.579 39.8234 25.1892 39.8234C25.7994 39.8234 26.3847 40.0656 26.8166 40.4967L35.0748 48.7496L54.5235 28.082C54.942 27.6379 55.5196 27.3781 56.1295 27.3595C56.7394 27.3409 57.3317 27.565 57.7765 27.9827L59.1939 29.3204C59.6385 29.739 59.8987 30.3169 59.9173 30.9273C59.9359 31.5376 59.7114 32.1303 59.2931 32.5752L36.8519 56.4356C36.6406 56.6608 36.3862 56.8412 36.1038 56.9661C35.8213 57.091 35.5167 57.1578 35.2079 57.1626C34.8992 57.1674 34.5926 57.1101 34.3064 56.994C34.0203 56.8779 33.7604 56.7055 33.5422 56.487Z" fill="#F1F1F1"/>
</svg>
