<svg width="18" height="17" viewBox="0 0 18 17" fill="none" xmlns="http://www.w3.org/2000/svg">
<path d="M16.5503 12.9102C16.6542 12.5932 16.7109 12.2563 16.7109 11.9082V4.11373C16.7109 3.19497 16.3128 2.31384 15.6041 1.66418C14.8953 1.01451 13.9341 0.649536 12.9318 0.649536H4.42878C3.4265 0.649536 2.46526 1.01451 1.75654 1.66418C1.04781 2.31384 0.649658 3.19497 0.649658 4.11373V11.9688C0.666999 12.877 1.0728 13.7426 1.77965 14.3793C2.4865 15.0159 3.43785 15.3725 4.42878 15.3724H12.9318L13.0423 15.3706M16.5503 12.9102L16.4672 12.8201L14.1373 10.2428C13.9606 10.0473 13.7391 9.88977 13.4885 9.78146C13.238 9.67315 12.9645 9.61666 12.6875 9.616C12.4104 9.61534 12.1367 9.67052 11.8855 9.77763C11.6343 9.88474 11.4119 10.0412 11.234 10.2358L9.99449 11.5921L9.7923 11.8181M16.5503 12.9102C16.3211 13.6059 15.8591 14.2171 15.2295 14.6588C14.6 15.1005 13.8348 15.3495 13.0423 15.3706M9.7923 11.8181L12.9545 15.2788L13.0423 15.3706M9.7923 11.8181L6.74349 8.48122C6.56614 8.28719 6.34455 8.13115 6.09432 8.02409C5.84408 7.91703 5.57129 7.86155 5.29515 7.86155C5.019 7.86155 4.74621 7.91703 4.49598 8.02409C4.24574 8.13115 4.02415 8.28719 3.8468 8.48122L0.817829 11.7956L0.650603 11.9697" stroke="#8A8A8A" stroke-width="1.29907" stroke-linecap="round" stroke-linejoin="round"/>
<path d="M11.6006 6.63306C12.3833 6.63306 13.0178 6.05144 13.0178 5.33399C13.0178 4.61653 12.3833 4.03491 11.6006 4.03491C10.818 4.03491 10.1835 4.61653 10.1835 5.33399C10.1835 6.05144 10.818 6.63306 11.6006 6.63306Z" fill="#8A8A8A"/>
</svg>
