<svg width="290" height="185" viewBox="0 0 290 185" fill="none" xmlns="http://www.w3.org/2000/svg">
<path d="M256.337 108.142L246.825 131.69L280.397 146.375L289.91 122.828L256.337 108.142Z" fill="#EBEBEB"/>
<path d="M289.89 123.165C289.747 123.235 289.6 123.294 289.449 123.34L288.169 123.799L283.445 125.369L267.79 130.427L267.662 130.468L267.596 130.344L267.442 130.046L259.502 114.83C258.518 112.897 257.711 111.328 257.138 110.199C256.877 109.671 256.666 109.253 256.507 108.932C256.428 108.785 256.362 108.631 256.308 108.473C256.408 108.604 256.496 108.745 256.568 108.895L257.252 110.13C257.848 111.245 258.681 112.801 259.709 114.72C261.769 118.63 264.592 123.978 267.711 129.867L267.865 130.17L267.671 130.087L283.388 125.148L288.147 123.68L289.444 123.299C289.588 123.239 289.737 123.194 289.89 123.165Z" fill="#E0E0E0"/>
<path d="M246.82 132.032C246.776 131.949 250.605 129.824 255.369 127.291C260.133 124.757 264.028 122.769 264.072 122.857C264.116 122.944 260.283 125.064 255.519 127.598C250.755 130.132 246.86 132.11 246.82 132.032Z" fill="#E0E0E0"/>
<path d="M275.333 127.441C275.422 127.418 276.626 131.71 278.015 137.034C279.405 142.359 280.463 146.674 280.375 146.72C280.287 146.765 279.087 142.451 277.698 137.126C276.308 131.802 275.263 127.441 275.333 127.441Z" fill="#E0E0E0"/>
<path d="M41.0971 151.137L34.0237 168.646L58.9915 179.568L66.0648 162.058L41.0971 151.137Z" fill="#F5F5F5"/>
<path d="M66.0582 162.326C65.9543 162.382 65.8449 162.427 65.7318 162.459L64.7834 162.785L61.2546 163.955L49.6049 167.729L49.5079 167.761L49.4594 167.669C49.4241 167.595 49.3844 167.522 49.3403 167.444L43.4559 156.129L41.6915 152.682L41.2239 151.741C41.1655 151.634 41.1153 151.522 41.0739 151.406C41.1495 151.503 41.2146 151.607 41.268 151.718L41.7753 152.636C42.2164 153.463 42.8427 154.619 43.6014 156.042L49.552 167.32C49.5917 167.398 49.6314 167.476 49.6711 167.545L49.5255 167.485L61.1972 163.786L64.7261 162.693L65.6921 162.409C65.8108 162.367 65.9336 162.339 66.0582 162.326Z" fill="#E0E0E0"/>
<path d="M34.0206 168.897C33.9897 168.833 36.8349 167.254 40.377 165.367C43.919 163.481 46.8392 162.007 46.8392 162.072C46.8392 162.136 44.0249 163.71 40.4828 165.597C36.9407 167.483 34.0471 168.957 34.0206 168.897Z" fill="#E0E0E0"/>
<path d="M55.2204 165.48C55.2821 165.48 56.1776 168.656 57.2098 172.613C58.242 176.569 59.0316 179.796 58.9742 179.814C58.9169 179.833 58.0126 176.638 56.9804 172.682C55.9482 168.725 55.1719 165.498 55.2204 165.48Z" fill="#E0E0E0"/>
<path d="M29.6115 93.6623L0 105.875L11.3557 135.689L40.9672 123.477L29.6115 93.6623Z" fill="#F5F5F5"/>
<path d="M12.671 132.188L15.0221 113.469L25.4588 120.51L27.5452 113.625L37.6951 121.874L12.671 132.188Z" fill="#E0E0E0"/>
<path d="M23.4609 106.548C23.6279 106.987 23.6661 107.468 23.5706 107.929C23.4752 108.391 23.2504 108.812 22.9246 109.141C22.5989 109.469 22.1868 109.69 21.7406 109.775C21.2943 109.86 20.8339 109.805 20.4175 109.618C20.0012 109.43 19.6476 109.119 19.4014 108.722C19.1553 108.325 19.0277 107.862 19.0347 107.39C19.0418 106.918 19.1832 106.459 19.441 106.07C19.6989 105.682 20.0616 105.382 20.4834 105.208C20.7634 105.092 21.0627 105.034 21.3641 105.039C21.6655 105.044 21.963 105.11 22.2397 105.235C22.5163 105.359 22.7666 105.539 22.9762 105.765C23.1857 105.99 23.3505 106.256 23.4609 106.548Z" fill="#E0E0E0"/>
<g opacity="0.3">
<path d="M37.7261 121.957C37.7053 121.919 37.6876 121.879 37.6732 121.837C37.6379 121.746 37.5894 121.635 37.532 121.493L37.0071 120.153C36.566 118.978 35.8911 117.27 35.0486 115.104C33.3768 110.757 30.9904 104.547 28.132 97.1291L28.2996 97.2071L3.28884 107.544C3.26678 107.59 3.44764 107.158 3.37265 107.342V107.365V107.392V107.443L3.41235 107.549L3.49175 107.764L3.65496 108.187L3.97697 109.036C4.19311 109.596 4.41807 110.16 4.61657 110.716L5.88255 114.039L8.32629 120.465L12.7859 132.225L12.6183 132.151L30.7301 124.757L35.847 122.682L37.2056 122.14L37.5585 122.003C37.5999 121.985 37.6427 121.971 37.6864 121.961L37.5805 122.012L37.2453 122.159L35.922 122.723L30.8581 124.848L12.755 132.399L12.6315 132.454L12.583 132.326C11.1935 128.695 9.6849 124.748 8.0925 120.575C7.29557 118.488 6.47804 116.346 5.63994 114.149C5.2253 113.052 4.80184 111.946 4.37837 110.83C4.16223 110.27 3.93726 109.71 3.73436 109.146L3.41235 108.297L3.24914 107.874L3.16974 107.663L3.13004 107.553V107.503V107.475C3.05505 107.654 3.23149 107.218 3.21826 107.264L28.2423 96.9685L28.3658 96.918L28.4143 97.0419L35.2383 115.15L37.1218 120.199L37.6114 121.521C37.6599 121.663 37.6996 121.773 37.7305 121.856C37.7322 121.889 37.7307 121.923 37.7261 121.957Z" fill="#E0E0E0"/>
</g>
<path d="M199.255 175.27L197.654 174.067C196.745 173.382 196.104 172.378 195.85 171.24L194.721 166.191C194.359 164.605 193.464 163.205 192.199 162.244C190.933 161.283 189.38 160.824 187.818 160.949L187.376 158.994C187.35 158.876 187.302 158.764 187.235 158.665C187.167 158.567 187.081 158.483 186.983 158.419C186.884 158.355 186.774 158.312 186.659 158.293C186.544 158.273 186.427 158.277 186.313 158.305C186.2 158.332 186.093 158.382 185.998 158.453C185.903 158.523 185.823 158.612 185.761 158.715C185.7 158.818 185.658 158.932 185.64 159.052C185.621 159.171 185.625 159.294 185.652 159.411L186.093 161.33C184.577 161.897 183.314 163.024 182.544 164.496C181.774 165.969 181.55 167.684 181.915 169.317L182.996 174.164C183.234 175.22 183.124 176.329 182.683 177.313L181.682 179.548L188.197 177.932C188.448 178.325 188.788 178.648 189.187 178.872C189.586 179.096 190.031 179.215 190.485 179.218C190.938 179.221 191.385 179.109 191.787 178.89C192.189 178.671 192.533 178.354 192.789 177.964C193.028 177.59 193.179 177.162 193.23 176.716L199.255 175.27Z" fill="#EBEBEB"/>
<path d="M203.04 37.521L231.262 56.7074L219.37 77.1194L190.464 56.7488L203.04 37.521Z" fill="#F5F5F5"/>
<path d="M203.039 37.5203L223.472 35.5098C223.891 35.4682 224.311 35.5784 224.662 35.8217C225.012 36.065 225.271 36.4266 225.395 36.8455L231.262 56.7067" fill="#DB9448"/>
<path d="M203.039 37.5203L223.472 35.5098C223.891 35.4682 224.311 35.5784 224.662 35.8217C225.012 36.065 225.271 36.4266 225.395 36.8455L231.262 56.7067" fill="#E0E0E0"/>
<path d="M190.464 56.7554C190.464 56.6957 194.328 55.6951 199.127 54.52C203.927 53.345 207.844 52.427 207.844 52.4866C207.844 52.5463 203.98 53.5424 199.185 54.722C194.39 55.9016 190.477 56.8059 190.464 56.7554Z" fill="#E0E0E0"/>
<path d="M219.37 77.1174C219.312 77.1174 218.717 73.1102 218.046 68.1484C217.376 63.1865 216.873 59.1564 216.93 59.1519C216.988 59.1473 217.579 63.1544 218.254 68.1208C218.929 73.0873 219.427 77.1082 219.37 77.1174Z" fill="#E0E0E0"/>
<path d="M203.039 37.521L209.678 58.6904L231.262 56.7075L203.039 37.521Z" fill="#E0E0E0"/>
<path d="M203.763 39.5805L209.542 30.4233L234.328 47.1082L228.479 56.9034L209.776 58.5329L203.763 39.5805Z" fill="#FAFAFA"/>
<path d="M203.763 39.5817C203.763 39.5817 203.808 39.7011 203.883 39.926L204.218 40.9266C204.504 41.8171 204.919 43.1023 205.453 44.7456C206.512 48.0458 208.029 52.7736 209.864 58.5157L209.767 58.4469L228.47 56.7945L228.382 56.8495L231.858 51.0247C232.66 49.6845 233.451 48.361 234.231 47.0543L234.266 47.2196L209.502 30.498H209.604L205.325 37.2087C204.827 37.9844 204.443 38.5857 204.174 38.9988L203.869 39.4578C203.803 39.5634 203.763 39.6139 203.763 39.6139C203.763 39.6139 203.79 39.5588 203.852 39.4532C203.913 39.3476 204.01 39.187 204.134 38.9942L205.246 37.1903L209.48 30.42L209.52 30.3557L209.582 30.397L234.39 47.0452L234.482 47.1094L234.425 47.2104L232.052 51.1808L228.576 56.9689L228.545 57.0194H228.488L209.785 58.6305H209.71L209.688 58.557L205.347 44.7364C204.835 43.0931 204.434 41.8033 204.16 40.9129L203.856 39.9122C203.79 39.6965 203.763 39.5817 203.763 39.5817Z" fill="#E0E0E0"/>
<path d="M227.508 49.0166C227.473 49.0716 223.67 46.5425 219.012 43.3662C214.354 40.1899 210.605 37.5735 210.631 37.5185C210.658 37.4634 214.469 39.9925 219.127 43.1688C223.785 46.3451 227.543 48.9523 227.508 49.0166Z" fill="#E0E0E0"/>
<path d="M225.863 51.5976C225.828 51.6527 222.025 49.1236 217.367 45.9473C212.709 42.7709 208.96 40.1546 208.986 40.0995C209.013 40.0444 212.824 42.5736 217.486 45.7499C222.149 48.9262 225.898 51.5425 225.863 51.5976Z" fill="#E0E0E0"/>
<path d="M223.966 54.5681C223.935 54.6232 220.128 52.094 215.47 48.9223C210.812 45.7506 207.063 43.1251 207.089 43.07C207.116 43.0149 210.931 45.544 215.589 48.7203C220.247 51.8967 224.001 54.513 223.966 54.5681Z" fill="#E0E0E0"/>
<path d="M222.074 57.5392C222.039 57.5943 218.408 55.1845 213.962 52.1551C209.516 49.1256 205.943 46.647 205.978 46.569C206.013 46.4909 209.643 48.9237 214.09 51.9531C218.536 54.9825 222.109 57.4841 222.074 57.5392Z" fill="#E0E0E0"/>
<path d="M217.261 57.9758C217.118 57.9178 216.982 57.8423 216.855 57.7509L215.783 57.0762L212.312 54.7812C210.958 53.8632 209.745 53.0415 208.871 52.4265C208.43 52.1189 208.086 51.8619 207.848 51.6829C207.717 51.6 207.597 51.4997 207.491 51.3845C207.635 51.4383 207.772 51.5124 207.896 51.6048L208.96 52.2842L212.435 54.5792C213.79 55.4972 215.003 56.3142 215.872 56.9339C216.313 57.2414 216.657 57.4939 216.895 57.6775C217.029 57.7597 217.152 57.86 217.261 57.9758Z" fill="#E0E0E0"/>
<path d="M212.498 58.2982C211.843 57.9884 211.222 57.6068 210.645 57.1599C210.024 56.7794 209.444 56.33 208.916 55.8196C209.57 56.1294 210.191 56.511 210.768 56.9579C211.39 57.3384 211.969 57.7878 212.498 58.2982Z" fill="#E0E0E0"/>
<path d="M104.475 54.7006L100.139 61.4205L98.4492 60.6952L85.8732 68.9573L83.4207 62.0309C83.4207 62.0309 90.5401 59.8415 92.084 57.4822C93.6279 55.1229 92.2428 54.3747 92.2428 54.3747L95.8643 51.0056L104.475 54.7006Z" fill="#EBEBEB"/>
<path d="M101.589 39.5102C101.589 39.5102 96.5869 37.6741 90.1909 29.5543C83.7948 21.4345 81.5011 11.3869 80.61 11.3134C79.719 11.24 76.071 8.90364 66.8078 24.6246C57.5445 40.3456 59.9926 44.5684 61.4615 44.7199C62.9304 44.8714 73.1862 43.2281 79.3043 44.7199C85.4225 46.2117 93.0096 50.5814 93.0096 50.5814L101.589 39.5102Z" fill="#EBEBEB"/>
<path d="M111.439 50.5743L109.287 53.8241L108.325 55.2791C107.688 56.2417 106.72 56.9131 105.621 57.1548C104.522 57.3965 103.375 57.1901 102.418 56.5781L91.8672 51.2123L100.032 36.7766L110.358 44.2492C111.305 44.9415 111.949 45.995 112.152 47.18C112.354 48.3649 112.098 49.5852 111.439 50.5743Z" fill="#E0E0E0"/>
<path d="M67.3686 25.0135C62.4194 33.5372 59.8698 41.3633 61.6651 42.497C63.4604 43.6308 68.939 37.6362 73.8838 29.1124C78.8286 20.5887 81.3826 12.758 79.5873 11.6289C77.792 10.4997 72.3135 16.4898 67.3686 25.0135Z" fill="#E0E0E0"/>
<path d="M109.071 50.8858C109.018 50.9776 107.597 50.1927 105.899 49.1232C104.201 48.0537 102.873 47.1128 102.926 47.021C102.979 46.9292 104.404 47.7141 106.098 48.779C107.791 49.8439 109.128 50.7894 109.071 50.8858Z" fill="#EBEBEB"/>
<path d="M110.239 48.8206C110.182 48.917 108.916 48.155 107.381 47.1268C105.846 46.0987 104.672 45.1898 104.734 45.0934C104.796 44.997 106.058 45.759 107.593 46.7918C109.128 47.8245 110.297 48.7288 110.239 48.8206Z" fill="#EBEBEB"/>
<path d="M107.651 53.0256C107.629 53.0761 107.285 52.9476 106.742 52.6951C106.469 52.5666 106.147 52.4105 105.789 52.2361C105.432 52.0617 105.079 51.8046 104.695 51.5568C103.151 50.5653 101.991 49.6381 102.049 49.5509C102.106 49.4637 103.372 50.2348 104.898 51.2171C105.282 51.4558 105.635 51.7174 105.97 51.9148C106.305 52.1122 106.614 52.2866 106.852 52.4427C107.368 52.7548 107.673 52.9751 107.651 53.0256Z" fill="#EBEBEB"/>
<path d="M75.5733 24.0028C75.5733 24.0028 71.4357 20.5648 68.2729 26.5365C65.1102 32.5082 69.6845 34.1285 69.6845 34.1285C72.0945 31.0576 74.0769 27.6489 75.5733 24.0028Z" fill="#FAFAFA"/>
<path d="M81.1795 17.1113C81.1103 17.5123 81.0054 17.9056 80.8663 18.2864C80.6369 19.0346 80.3105 20.1224 79.8694 21.4581C79.6003 22.1053 79.3092 22.8351 78.9872 23.5787L78.4976 24.7584C78.4137 24.9603 78.3299 25.1669 78.2417 25.3734C78.1535 25.58 78.0388 25.782 77.9373 25.9885C77.5139 26.8117 77.0728 27.6731 76.614 28.5727C76.4993 28.793 76.3846 29.0179 76.27 29.2474C76.1553 29.477 76.0053 29.7065 75.873 29.9084L75.0701 31.2533L74.2364 32.5936C74.0997 32.8093 73.9762 33.0526 73.8218 33.2408L73.3807 33.8513L71.6692 36.1739C71.528 36.3575 71.4001 36.5456 71.259 36.7201L70.8179 37.2158L69.9842 38.1705L68.4932 39.878C67.514 40.8465 66.6979 41.6085 66.1421 42.1363C65.8629 42.4245 65.5604 42.6871 65.2379 42.9212C65.4796 42.5932 65.7466 42.2861 66.0363 42.0032L68.3036 39.6531L69.7504 37.9273L70.5576 36.9679C70.6988 36.8073 70.8399 36.6374 70.9987 36.4676C71.1575 36.2978 71.2634 36.1096 71.4001 35.926L73.0807 33.6034L73.5219 32.9929C73.6718 32.791 73.7909 32.5661 73.9321 32.3503L74.7525 31.0146L75.5774 29.6835C75.7053 29.4632 75.8553 29.2566 75.97 29.0271L76.3185 28.357C76.7596 27.4711 77.2227 26.6173 77.6418 25.8049C77.7433 25.5984 77.8579 25.401 77.9506 25.199C78.0432 24.9971 78.127 24.7905 78.2108 24.5885L78.7137 23.4227L79.6224 21.3342L80.734 18.2221C80.8543 17.8403 81.0033 17.4689 81.1795 17.1113Z" fill="#E0E0E0"/>
<path d="M57.2758 29.4812C57.2758 29.5501 54.0337 29.4353 50.0373 29.2334C46.0408 29.0314 42.8075 28.8111 42.8119 28.7468C42.8163 28.6826 46.0541 28.7927 50.0505 28.9947C54.0469 29.1966 57.2803 29.417 57.2758 29.4812Z" fill="#EBEBEB"/>
<path d="M60.43 19.6466C60.4036 19.7062 56.6453 17.8105 52.049 15.3778C47.4526 12.9451 43.7209 10.953 43.7517 10.8979C43.7826 10.8428 47.5365 12.7339 52.1328 15.1621C56.7291 17.5902 60.4609 19.5777 60.43 19.6466Z" fill="#EBEBEB"/>
<path d="M66.0938 13.3067C66.032 13.3067 65.2115 10.3598 64.2764 6.6878C63.3412 3.01575 62.6222 0.0184449 62.684 8.46758e-05C62.7458 -0.0182756 63.5662 2.95149 64.5014 6.62354C65.4365 10.2956 66.1555 13.2883 66.0938 13.3067Z" fill="#EBEBEB"/>
<path d="M192.784 21.6424C192.45 20.5482 191.802 19.5869 190.927 18.8884C190.095 18.1737 189.069 17.7483 187.993 17.672C187.425 17.6517 186.859 17.7506 186.329 17.9627C185.798 18.1748 185.314 18.4959 184.905 18.9068C184.42 19.4024 184.058 20.0137 183.851 20.6877C183.285 19.9797 182.516 19.4782 181.657 19.2561C180.798 19.0341 179.893 19.103 179.074 19.453C178.084 19.9014 177.256 20.6626 176.705 21.6287C176.098 22.5887 175.79 23.7203 175.823 24.8693C175.895 26.3297 176.418 27.727 177.314 28.8534C178.321 29.9803 179.574 30.8383 180.966 31.355C183.234 32.273 186.207 33.3976 186.207 33.3976C186.207 33.3976 188.201 31.2081 190.04 29.5465C191.188 28.5738 192.096 27.3288 192.687 25.9158C193.157 24.5388 193.191 23.041 192.784 21.6424Z" fill="#EBEBEB"/>
<path d="M172.996 9.47858C173.009 8.80043 172.823 8.13436 172.463 7.56911C172.13 7.00002 171.633 6.55499 171.042 6.29766C170.727 6.17007 170.39 6.11039 170.052 6.12222C169.714 6.13406 169.381 6.21716 169.075 6.36652C168.706 6.55664 168.386 6.83698 168.144 7.18355C168.012 6.83501 167.807 6.52143 167.544 6.26553C167.299 6.02339 167.009 5.83581 166.692 5.71427C166.375 5.59272 166.038 5.53978 165.7 5.55866C165.07 5.60198 164.469 5.84912 163.98 6.26553C163.467 6.68546 163.09 7.25896 162.899 7.90878C162.671 8.74086 162.705 9.62745 162.996 10.4379C163.354 11.2703 163.898 12.0008 164.584 12.5677C165.683 13.5362 167.143 14.7617 167.143 14.7617C167.143 14.7617 168.66 13.9355 169.997 13.3847C170.82 13.0713 171.557 12.5547 172.145 11.8792C172.671 11.1956 172.969 10.3534 172.996 9.47858Z" fill="#EBEBEB"/>
<path d="M91.0514 159.507C90.7853 158.886 90.3416 158.367 89.781 158.019C89.244 157.657 88.612 157.477 87.9725 157.505C87.4307 157.542 86.9159 157.765 86.5087 158.138C86.1016 158.512 85.8252 159.016 85.7228 159.571C85.458 159.308 85.14 159.11 84.7921 158.992C84.4706 158.884 84.1314 158.844 83.7948 158.876C83.4582 158.907 83.1313 159.01 82.8336 159.176C82.2789 159.511 81.8392 160.018 81.5764 160.626C81.287 161.234 81.1838 161.92 81.2809 162.591C81.4156 163.447 81.8134 164.235 82.4145 164.836C83.0812 165.425 83.8737 165.841 84.7259 166.047C86.1198 166.428 87.9416 166.883 87.9416 166.883C87.9416 166.883 88.9694 165.455 89.9486 164.349C90.5584 163.704 91.012 162.917 91.272 162.054C91.4653 161.202 91.3879 160.308 91.0514 159.507Z" fill="#EBEBEB"/>
<path d="M264.605 71.3216C264.579 70.5125 264.492 69.7067 264.345 68.9118C264.153 67.984 263.829 67.0913 263.383 66.2634C262.33 64.2737 260.644 62.7274 258.615 61.8899C256.586 61.0524 254.34 60.9758 252.263 61.6733C251.401 61.9523 250.585 62.3688 249.846 62.908C249.463 63.1824 249.098 63.4813 248.752 63.8031C248.41 64.1451 248.09 64.51 247.794 64.8955C246.55 66.5125 245.836 68.5015 245.756 70.5714C245.677 72.6413 246.237 74.6832 247.353 76.3982C247.621 76.8073 247.916 77.1969 248.236 77.5641C248.557 77.9156 248.901 78.2452 249.263 78.551C249.962 79.1443 250.743 79.6241 251.579 79.9739C253.131 80.6339 254.825 80.851 256.484 80.6027C257.93 80.3892 259.307 79.823 260.503 78.9503C261.495 78.2354 262.346 77.3284 263.008 76.2789C263.516 75.4911 263.906 74.6275 264.164 73.7176C264.371 72.9368 264.518 72.1403 264.605 71.3354C264.605 71.3354 264.605 71.3905 264.605 71.496C264.605 71.6016 264.605 71.776 264.579 71.955C264.568 72.211 264.539 72.4657 264.49 72.717C264.441 73.0632 264.367 73.4053 264.27 73.7406C264.024 74.6692 263.644 75.5531 263.141 76.3615C262.405 77.5529 261.435 78.5682 260.294 79.3405C259.154 80.1128 257.869 80.6243 256.524 80.8414C254.82 81.1048 253.079 80.8893 251.482 80.2171C250.619 79.8606 249.813 79.37 249.091 78.7621C248.72 78.4475 248.366 78.1103 248.033 77.7523C247.715 77.3727 247.42 76.9725 247.15 76.5543C245.994 74.7896 245.412 72.685 245.491 70.5505C245.571 68.416 246.307 66.3645 247.592 64.6982C247.897 64.3009 248.227 63.9253 248.58 63.5736C248.938 63.2426 249.317 62.936 249.713 62.6556C250.476 62.1024 251.317 61.6766 252.206 61.3933C253.846 60.8506 255.597 60.7777 257.274 61.1822C258.6 61.5042 259.846 62.1165 260.928 62.9784C262.009 63.8403 262.902 64.9319 263.546 66.1807C263.989 67.0265 264.303 67.9385 264.477 68.8843C264.549 69.226 264.596 69.5727 264.618 69.9216C264.651 70.1756 264.661 70.4322 264.649 70.6882C264.649 70.881 264.649 71.037 264.649 71.1472C264.649 71.2574 264.614 71.3216 264.605 71.3216Z" fill="#E0E0E0"/>
<path d="M255.068 81.1717C253.808 81.1808 252.559 80.928 251.394 80.4281C250.511 80.0656 249.687 79.564 248.95 78.9409C248.638 78.6878 248.343 78.4117 248.068 78.1147L247.874 77.9173L247.702 77.7108C247.424 77.3837 247.167 77.0371 246.934 76.6734C245.752 74.8694 245.157 72.7185 245.237 70.5367C245.316 68.3548 246.066 66.2569 247.375 64.5511C247.634 64.2106 247.914 63.8886 248.214 63.5871L248.381 63.4127L248.602 63.2154C248.902 62.9416 249.218 62.6886 249.55 62.458C250.33 61.8969 251.189 61.4635 252.095 61.1728C253.774 60.6236 255.563 60.5491 257.278 60.957C258.637 61.2851 259.912 61.9115 261.019 62.7941C262.126 63.6768 263.039 64.7954 263.696 66.075C264.149 66.9363 264.47 67.8653 264.649 68.829C264.719 69.143 264.765 69.4622 264.786 69.7837V69.8847C264.819 70.1479 264.829 70.4137 264.817 70.6788V71.1378C264.82 71.1974 264.82 71.2572 264.817 71.3168V71.4637L264.79 71.9227C264.778 72.1894 264.747 72.4548 264.698 72.7168V72.8132C264.649 73.1344 264.58 73.4518 264.49 73.7633C264.239 74.7101 263.849 75.6111 263.335 76.4347C262.584 77.6578 261.59 78.6999 260.421 79.4914C259.252 80.283 257.934 80.8058 256.555 81.0248C256.063 81.1082 255.566 81.1572 255.068 81.1717ZM255.068 61.4344C254.134 61.4298 253.206 61.5849 252.32 61.8934C251.478 62.1634 250.682 62.5692 249.96 63.096C249.651 63.3046 249.356 63.5363 249.078 63.7891L248.703 64.1471C248.445 64.4207 248.205 64.7121 247.984 65.0192C246.767 66.5976 246.067 68.54 245.988 70.562C245.909 72.584 246.454 74.5793 247.543 76.2557C247.758 76.5899 247.993 76.9088 248.249 77.2104L248.408 77.4032L248.588 77.5914C248.841 77.857 249.11 78.1039 249.396 78.3304C250.078 78.9088 250.843 79.3734 251.663 79.7074C253.18 80.3517 254.835 80.5656 256.458 80.3271C257.745 80.1293 258.977 79.6509 260.074 78.9232C261.171 78.1955 262.108 77.2348 262.823 76.1042C263.318 75.3356 263.698 74.4938 263.952 73.6073C264.15 72.9169 264.283 72.2082 264.349 71.4912C264.349 71.3994 264.349 71.3306 264.376 71.2755C264.402 71.2204 264.376 71.1516 264.376 71.0598C264.362 70.3405 264.283 69.6242 264.138 68.9208C263.949 68.0158 263.632 67.1449 263.198 66.3366C262.627 65.2648 261.865 64.316 260.953 63.5412C259.85 62.5998 258.551 61.9396 257.159 61.6134C256.475 61.4745 255.779 61.4099 255.082 61.4206L255.068 61.4344Z" fill="#E0E0E0"/>
<path d="M261.345 78.3987C261.402 78.3437 263.396 80.4826 265.796 83.1816C268.196 85.8805 270.092 88.1113 270.031 88.171C269.969 88.2307 267.979 86.0871 265.58 83.3881C263.18 80.6892 261.288 78.4584 261.345 78.3987Z" fill="#E0E0E0"/>
<path d="M270.115 88.4017H270.04C269.952 88.4017 269.744 88.4017 265.439 83.5454C261.134 78.6891 261.138 78.4964 261.143 78.3954V78.299L261.209 78.2347C261.394 78.0511 261.412 78.0373 262.868 79.6117C263.706 80.5297 264.808 81.7323 265.955 83.0405C267.102 84.3487 268.196 85.5834 268.999 86.529C270.38 88.1584 270.366 88.1722 270.177 88.365L270.115 88.4017Z" fill="#E0E0E0"/>
<path d="M45.9922 58.5272L44.1572 59.2937L37.9023 55.1627L36.4334 51.3438C36.4334 51.3438 33.5221 52.349 35.7806 57.2098C38.0391 62.0707 37.1877 60.9462 37.1877 60.9462C37.1877 60.9462 31.1666 63.4845 30.8755 64.2418C30.6638 64.788 32.9002 71.0948 34.1397 74.5006C34.7616 76.2173 36.3761 77.3832 38.0523 77.1491C38.2867 77.1204 38.5165 77.0603 38.736 76.9701C40.2402 76.3412 47.4391 71.8659 47.4391 71.8659L50.6151 70.5394L45.9922 58.5272Z" fill="#EBEBEB"/>
<path d="M50.8534 55.2883L54.7617 68.8428L51.6121 70.1555L46.6761 57.3355L50.8534 55.2883Z" fill="#EBEBEB"/>
<path d="M232.894 157.654L230.728 158.026L224.914 151.98L224.204 147.482C224.204 147.482 220.821 147.84 222.148 153.665C223.476 159.49 222.81 158.062 222.81 158.062C222.81 158.062 215.704 159.311 215.214 160.059C214.861 160.596 215.832 167.981 216.387 171.993C216.67 174.008 218.152 175.665 220.013 175.835C220.274 175.867 220.538 175.867 220.799 175.835C222.563 175.532 231.385 172.475 231.385 172.475L235.126 171.832L232.894 157.654Z" fill="#F5F5F5"/>
<path d="M238.902 155.354L240.013 171.002L236.304 171.64L233.909 156.529L238.902 155.354Z" fill="#F5F5F5"/>
<path d="M117.72 172.233C118.798 172.114 119.819 171.668 120.655 170.95C121.492 170.233 122.108 169.277 122.427 168.199C123.371 165.174 121.924 161.97 119.198 161.043C116.472 160.116 113.49 161.828 112.546 164.857C112.19 165.935 112.15 167.1 112.43 168.202C112.711 169.304 113.299 170.295 114.121 171.049C106.141 169.709 103.839 178.434 103.839 178.434L121.827 184.503C121.827 184.503 124.915 175.933 117.72 172.233Z" fill="#EBEBEB"/>
</svg>
