<svg width="85" height="87" viewBox="0 0 85 87" fill="none" xmlns="http://www.w3.org/2000/svg">
<path d="M37.9914 10.3538C38.3857 9.61217 38.9956 8.98778 39.752 8.55119C40.5085 8.11461 41.3815 7.88324 42.2721 7.88324C43.1628 7.88324 44.0358 8.11461 44.7922 8.55119C45.5487 8.98778 46.1586 9.61217 46.5529 10.3538L54.6211 25.5346L72.6619 27.9679C73.5439 28.086 74.3726 28.431 75.0544 28.9638C75.7362 29.4965 76.2438 30.1959 76.5197 30.9826C76.7957 31.7693 76.8291 32.6121 76.616 33.4155C76.403 34.219 75.952 34.951 75.3142 35.5288L62.2544 47.3504L65.3363 64.0336C65.4861 64.8486 65.3874 65.6864 65.0514 66.4521C64.7153 67.2179 64.1554 67.8811 63.4347 68.3668C62.7141 68.8526 61.8615 69.1415 60.9733 69.2009C60.0851 69.2603 59.1968 69.0879 58.4086 68.7031L42.2721 60.8319L26.1357 68.7129C25.3466 69.0986 24.457 69.2713 23.5677 69.2116C22.6783 69.1519 21.8248 68.8621 21.1037 68.375C20.3826 67.888 19.8228 67.2231 19.4878 66.4558C19.1527 65.6885 19.0558 64.8494 19.208 64.0336L22.2846 47.3504L9.23539 35.5337C8.59766 34.9562 8.14664 34.2246 7.93332 33.4215C7.72 32.6185 7.7529 31.776 8.02828 30.9894C8.30366 30.2028 8.81056 29.5034 9.49165 28.9703C10.1727 28.4372 11.0009 28.0917 11.8824 27.9728L29.9178 25.5396L37.9914 10.3538Z" fill="url(#paint0_linear_1_2369)"/>
<defs>
<linearGradient id="paint0_linear_1_2369" x1="76.7464" y1="70.5945" x2="10.7599" y2="3.58599" gradientUnits="userSpaceOnUse">
<stop stop-color="#D2B48C"/>
</linearGradient>
</defs>
</svg>
