<svg viewBox="0 0 15.0693 17.8147" xmlns="http://www.w3.org/2000/svg" xmlns:xlink="http://www.w3.org/1999/xlink" width="15.069275" height="17.814697" fill="none" customFrame="#000000">
	<path id="Vector" d="M7.53463 0C6.39274 9.88911e-16 5.29762 0.469223 4.49018 1.30445C3.68274 2.13967 3.22913 3.27247 3.22913 4.45366C3.22913 5.63484 3.68274 6.76765 4.49018 7.60287C5.29762 8.43809 6.39274 8.90731 7.53463 8.90731C8.67652 8.90731 9.77164 8.43809 10.5791 7.60287C11.3865 6.76765 11.8401 5.63484 11.8401 4.45366C11.8401 3.27247 11.3865 2.13967 10.5791 1.30445C9.77164 0.469223 8.67652 4.94455e-16 7.53463 0ZM2.16244 10.0207C1.87892 10.0194 1.59794 10.076 1.33564 10.1874C1.07334 10.2987 0.834876 10.4625 0.633947 10.6694C0.433019 10.8763 0.273581 11.1222 0.16479 11.3931C0.0559991 11.6639 -2.87055e-06 11.9543 1.10357e-10 12.2476C1.10357e-10 14.1303 0.896621 15.5499 2.29806 16.4752C3.67797 17.3849 5.53795 17.8146 7.53463 17.8146C9.5313 17.8146 11.3913 17.3849 12.7712 16.4752C14.1726 15.5511 15.0693 14.1292 15.0693 12.2476C15.0693 11.657 14.8424 11.0906 14.4387 10.673C14.035 10.2553 13.4874 10.0207 12.9165 10.0207L2.16244 10.0207Z" fill="rgb(210,180,140)" fill-rule="nonzero" />
</svg>
