<svg width="155" height="167" viewBox="0 0 155 167" fill="none" xmlns="http://www.w3.org/2000/svg">
<path d="M10.7553 67.5617C18.269 61.4503 24.8408 57.39 31.8627 54.3866C38.0474 51.739 39.9101 47.7938 39.8054 41.3057C39.638 30.0665 40.7368 18.8169 40.7159 7.56727C40.7054 0.555885 43.9285 -0.626655 49.9562 0.252385C74.0461 3.75808 96.2837 12.3497 117.402 24.2167C129.164 30.8304 140.267 38.4279 151.37 46.0567C154.719 48.3589 155.786 50.2949 151.475 52.9843C136.646 62.2352 121.399 70.4291 104.143 74.2487C97.1733 75.7975 90.2351 76.9591 83.0667 75.2742C78.6088 74.2278 74.4752 75.1382 70.4358 77.587C65.4441 80.6218 60.107 83.081 53.9433 86.3041C82.5121 86.3041 109.94 86.3041 137.368 86.3041C148.241 86.3041 151.37 91.1598 147.205 101.52C146.745 102.661 146.473 103.969 145.008 104.147C143.532 104.324 142.705 103.288 142.465 102.043C141.387 96.6538 137.211 97.0514 133.277 97.041C118.333 97.02 103.4 96.9991 88.4561 97.0619C86.5829 97.0619 83.9772 96.141 83.0249 98.0456C81.8215 100.432 84.3853 101.98 85.8295 103.445C103.839 121.769 121.954 139.988 139.943 158.333C141.68 160.102 145.154 161.609 143.752 164.706C142.59 167.28 139.346 166.15 137.034 166.161C93.4373 166.255 49.8411 166.182 6.24495 166.412C-0.452498 166.443 -1.05945 164.298 1.14862 158.657C13.0157 128.331 24.6525 97.92 36.3416 67.5303C37.1997 65.2909 39.5124 62.57 38.0788 60.7387C36.1428 58.2795 33.1813 60.948 30.6592 61.3247C24.4223 62.2561 19.4096 67.0385 10.7343 67.5408L10.7553 67.5617ZM51.8818 90.8144C50.9504 92.1016 50.4376 92.4783 50.4376 92.8551C50.3539 111.943 50.3434 131.041 50.2283 150.129C50.1969 155.141 53.4201 155.392 57.135 155.382C69.3788 155.34 81.6121 155.382 93.8559 155.382C100.072 155.382 106.299 155.382 114.785 155.382C93.5734 131.826 72.4136 111.775 51.8818 90.8144ZM90.1305 67.3943C104.928 67.7919 116.774 62.8003 128.4 56.7412C133.706 53.9785 132.68 51.8018 128.662 49.081C121.933 44.5288 114.817 40.8033 107.062 38.3023C103.86 37.2663 102.29 37.1093 102.353 41.5882C102.468 50.839 97.1209 57.7458 90.3293 58.3318C83.6423 58.9074 77.3321 52.6704 75.5007 43.6811C73.6799 34.7338 72.7695 34.1373 64.2616 37.7581C60.9233 39.1813 57.8781 41.3266 54.8014 43.3149C49.7993 46.538 49.747 49.8658 54.5084 53.6017C65.3918 62.1305 77.1646 68.1373 90.1305 67.4048V67.3943ZM39.2299 93.9329C38.7589 93.8388 38.2881 93.755 37.8171 93.6608C30.5023 112.675 23.1769 131.69 15.8725 150.715C15.0668 152.829 15.2656 155.026 17.8818 155.131C23.9618 155.382 30.0732 155.309 36.1532 155.058C38.5078 154.963 39.2089 152.818 39.2089 150.736C39.2403 131.805 39.2299 112.864 39.2299 93.9329ZM110.704 30.7676C97.6337 21.8098 83.0039 16.4832 67.9452 12.2345C64.2092 11.1776 60.264 10.7381 56.3816 10.3509C52.8655 9.9951 49.9458 10.9055 49.9772 15.3426C50.0086 19.2983 52.4992 20.2192 55.8374 20.1878C58.035 20.1668 60.2535 20.0622 62.4407 20.2401C64.9732 20.4494 68.8451 19.539 69.0754 23.0342C69.3161 26.8329 65.3185 25.9434 62.8802 26.2364C59.7304 26.6131 56.4549 26.1946 53.3782 26.8329C48.9935 27.7433 49.276 31.6885 50.2806 34.5245C51.6306 38.3546 53.9224 34.9745 55.377 34.1478C59.7198 31.7095 64.3558 30.3281 69.1382 29.1875C83.0981 25.8701 96.8174 27.7538 110.715 30.7572L110.704 30.7676ZM70.4881 72.7418C70.509 72.0825 70.53 71.4127 70.5613 70.7535C63.4976 69.0582 58.2548 63.4596 50.8562 62.4759C49.2865 68.9222 50.1132 75.4208 50.5109 81.9089C50.5318 82.2542 51.1179 82.5682 51.5051 82.9554C57.8362 79.5543 64.1674 76.1428 70.4986 72.7313L70.4881 72.7418Z" fill="#4B5320"/>
</svg>
