<svg width="21" height="21" viewBox="0 0 21 21" fill="none" xmlns="http://www.w3.org/2000/svg">
<path d="M14.7664 17.5649C13.9177 18.3877 12.991 18.2578 12.099 17.8681C11.155 17.4697 10.289 17.4524 9.29301 17.8681C8.0459 18.405 7.3877 18.2491 6.6429 17.5649C2.41658 13.2087 3.04014 6.57477 7.83805 6.33228C9.00722 6.3929 9.8213 6.97316 10.5055 7.02512C11.5274 6.81727 12.5061 6.21969 13.5973 6.29764C14.905 6.40156 15.8923 6.92119 16.5418 7.85653C13.8398 9.47604 14.4806 13.0355 16.9575 14.0315C16.4639 15.3305 15.823 16.6209 14.7578 17.5736L14.7664 17.5649ZM10.4189 6.28032C10.289 4.34903 11.8565 2.7555 13.6579 2.59961C13.9091 4.83402 11.6313 6.49683 10.4189 6.28032Z" fill="black"/>
</svg>
