<svg width="19" height="17" viewBox="0 0 19 17" fill="none" xmlns="http://www.w3.org/2000/svg">
<path d="M11.9082 9.31006H6.71188M9.31003 6.71191V11.9082" stroke="#8A8A8A" stroke-width="1.29907" stroke-linecap="round"/>
<path d="M7.38567 16.2385H11.2344C13.9373 16.2385 15.2892 16.2385 16.2601 15.6019C16.6791 15.3275 17.0399 14.9732 17.3218 14.5592C17.9705 13.6065 17.9705 12.2789 17.9705 9.62531C17.9705 6.97174 17.9705 5.64408 17.3218 4.69143C17.0399 4.27745 16.6791 3.92312 16.2601 3.6487C15.6365 3.23906 14.8553 3.0927 13.6593 3.04074C13.0886 3.04074 12.5975 2.61637 12.4858 2.06643C12.4004 1.66361 12.1786 1.30261 11.8578 1.04445C11.537 0.786296 11.1369 0.646813 10.7251 0.649576H7.8949C7.03925 0.649576 6.30224 1.24282 6.13422 2.06643C6.0225 2.61637 5.53145 3.04074 4.96073 3.04074C3.76558 3.0927 2.9844 3.23993 2.35998 3.6487C1.94128 3.92321 1.58078 4.27753 1.29907 4.69143C0.649536 5.64408 0.649536 6.97087 0.649536 9.62531C0.649536 12.2797 0.649536 13.6057 1.29821 14.5592C1.57881 14.9714 1.93908 15.3256 2.35998 15.6019C3.33082 16.2385 4.68273 16.2385 7.38567 16.2385Z" stroke="#8A8A8A" stroke-width="1.29907"/>
<path d="M15.3724 6.71191H14.5063" stroke="#8A8A8A" stroke-width="1.29907" stroke-linecap="round"/>
</svg>
