<svg width="20" height="20" viewBox="0 0 20 20" fill="none" xmlns="http://www.w3.org/2000/svg">
<g clip-path="url(#clip0_1_2466)">
<g clip-path="url(#clip1_1_2466)">
<path d="M19.053 9.52727C19.053 4.26594 14.7877 0.000732422 9.52642 0.000732422C4.26509 0.000732422 -0.00012207 4.26594 -0.00012207 9.52727C-0.00012207 14.2822 3.48361 18.2234 8.0379 18.9381V12.281H5.61905V9.52727H8.0379V7.42846C8.0379 5.04087 9.46018 3.72204 11.6362 3.72204C12.6785 3.72204 13.7687 3.9081 13.7687 3.9081V6.25252H12.5675C11.384 6.25252 11.0149 6.98689 11.0149 7.7403V9.52727H13.6571L13.2347 12.281H11.0149V18.9381C15.5692 18.2234 19.053 14.2823 19.053 9.52727Z" fill="#1877F2"/>
<path d="M13.2347 12.281L13.657 9.52728H11.0149V7.74031C11.0149 6.98682 11.384 6.25253 12.5674 6.25253H13.7687V3.90811C13.7687 3.90811 12.6785 3.72205 11.6361 3.72205C9.46015 3.72205 8.03787 5.04088 8.03787 7.42847V9.52728H5.61902V12.281H8.03787V18.9381C8.53028 19.0152 9.02796 19.0539 9.52639 19.0538C10.0248 19.0539 10.5225 19.0152 11.0149 18.9381V12.281H13.2347Z" fill="white"/>
</g>
</g>
<defs>
<clipPath id="clip0_1_2466">
<rect width="19.0531" height="19.0531" fill="white"/>
</clipPath>
<clipPath id="clip1_1_2466">
<rect width="19.0531" height="19.0531" fill="white" transform="translate(-6.10352e-05 0.000366211)"/>
</clipPath>
</defs>
</svg>
