<svg width="19" height="17" viewBox="0 0 19 17" fill="none" xmlns="http://www.w3.org/2000/svg">
<path fill-rule="evenodd" clip-rule="evenodd" d="M3.78841 1.63677C2.35164 2.29352 1.29907 3.85562 1.29907 5.71837C1.29907 7.62143 2.07784 9.08829 3.19424 10.3454C4.11436 11.3815 5.2282 12.2402 6.31447 13.0776C6.57248 13.2765 6.82893 13.4742 7.08086 13.6729C7.53643 14.032 7.94281 14.3472 8.33452 14.5761C8.72643 14.8051 9.0419 14.9097 9.31003 14.9097C9.57816 14.9097 9.89362 14.8051 10.2855 14.5761C10.6772 14.3472 11.0836 14.032 11.5392 13.6729C11.7911 13.4742 12.0476 13.2765 12.3056 13.0776C13.3919 12.2402 14.5057 11.3815 15.4258 10.3454C16.5422 9.08829 17.321 7.62143 17.321 5.71837C17.321 3.85562 16.2684 2.29352 14.8316 1.63677C13.4358 0.998735 11.5603 1.1677 9.77801 3.01945C9.65556 3.14667 9.4866 3.21855 9.31003 3.21855C9.13345 3.21855 8.96449 3.14667 8.84204 3.01945C7.05974 1.1677 5.18423 0.998735 3.78841 1.63677ZM9.31003 1.66675C7.30767 -0.124734 5.06549 -0.375345 3.24834 0.455276C1.32914 1.33255 0 3.36959 0 5.71837C0 8.02686 0.961744 9.7879 2.2229 11.208C3.23285 12.3452 4.46901 13.297 5.56075 14.1377C5.80823 14.3282 6.0483 14.5131 6.27662 14.693C6.72024 15.0428 7.19647 15.4157 7.6791 15.6977C8.16152 15.9796 8.71211 16.2087 9.31003 16.2087C9.90795 16.2087 10.4585 15.9796 10.941 15.6977C11.4236 15.4157 11.8998 15.0428 12.3434 14.693C12.5718 14.5131 12.8118 14.3282 13.0593 14.1377C14.151 13.297 15.3872 12.3452 16.3972 11.208C17.6583 9.7879 18.6201 8.02686 18.6201 5.71837C18.6201 3.36959 17.2909 1.33255 15.3717 0.455276C13.5546 -0.375345 11.3124 -0.124734 9.31003 1.66675Z" fill="#8A8A8A"/>
</svg>
