<svg width="16" height="16" viewBox="0 0 16 16" fill="none" xmlns="http://www.w3.org/2000/svg">
<path d="M14.5063 7.57753H5.25224M1.98578 7.57753H0.649536M1.98578 7.57753C1.98578 7.12168 2.15781 6.6845 2.46403 6.36216C2.77025 6.03983 3.18557 5.85874 3.61863 5.85874C4.05169 5.85874 4.46702 6.03983 4.77324 6.36216C5.07946 6.6845 5.25149 7.12168 5.25149 7.57753C5.25149 8.03339 5.07946 8.47057 4.77324 8.7929C4.46702 9.11524 4.05169 9.29633 3.61863 9.29633C3.18557 9.29633 2.77025 9.11524 2.46403 8.7929C2.15781 8.47057 1.98578 8.03339 1.98578 7.57753ZM14.5063 12.7867H10.201M10.201 12.7867C10.201 13.2427 10.0285 13.6804 9.72225 14.0028C9.41596 14.3252 9.00054 14.5063 8.56738 14.5063C8.13432 14.5063 7.719 14.3244 7.41278 14.0021C7.10656 13.6798 6.93452 13.2426 6.93452 12.7867M10.201 12.7867C10.201 12.3308 10.0285 11.8939 9.72225 11.5715C9.41596 11.2491 9.00054 11.0679 8.56738 11.0679C8.13432 11.0679 7.719 11.249 7.41278 11.5714C7.10656 11.8937 6.93452 12.3309 6.93452 12.7867M6.93452 12.7867H0.649536M14.5063 2.36833H12.1806M8.91417 2.36833H0.649536M8.91417 2.36833C8.91417 1.91248 9.0862 1.4753 9.39242 1.15296C9.69864 0.830623 10.114 0.649536 10.547 0.649536C10.7615 0.649536 10.9738 0.693994 11.1719 0.780372C11.37 0.866749 11.55 0.993354 11.7016 1.15296C11.8533 1.31256 11.9735 1.50204 12.0556 1.71058C12.1376 1.91911 12.1799 2.14261 12.1799 2.36833C12.1799 2.59404 12.1376 2.81755 12.0556 3.02608C11.9735 3.23462 11.8533 3.42409 11.7016 3.5837C11.55 3.7433 11.37 3.86991 11.1719 3.95629C10.9738 4.04266 10.7615 4.08712 10.547 4.08712C10.114 4.08712 9.69864 3.90604 9.39242 3.5837C9.0862 3.26136 8.91417 2.82418 8.91417 2.36833Z" stroke="#F8F8F8" stroke-width="1.29907" stroke-miterlimit="10" stroke-linecap="round"/>
</svg>
