<svg width="18" height="18" viewBox="0 0 18 18" fill="none" xmlns="http://www.w3.org/2000/svg">
<g clip-path="url(#clip0_1_2458)">
<path d="M17.1525 6.96275H16.4549V6.92681H8.66049V10.3909H13.555C12.8409 12.4075 10.9222 13.8551 8.66049 13.8551C5.79084 13.8551 3.4642 11.5285 3.4642 8.65888C3.4642 5.78927 5.79084 3.46267 8.66049 3.46267C9.98511 3.46267 11.1902 3.96237 12.1078 4.77861L14.5574 2.32903C13.0107 0.887519 10.9417 -0.00146484 8.66049 -0.00146484C3.87773 -0.00146484 0 3.8762 0 8.65888C0 13.4416 3.87773 17.3192 8.66049 17.3192C13.4432 17.3192 17.321 13.4416 17.321 8.65888C17.321 8.0782 17.2612 7.51138 17.1525 6.96275Z" fill="#FFC107"/>
<path d="M0.99884 4.62792L3.84424 6.71463C4.61416 4.80849 6.47877 3.46267 8.66078 3.46267C9.9854 3.46267 11.1905 3.96237 12.1081 4.77861L14.5577 2.32903C13.0109 0.887519 10.9419 -0.00146484 8.66078 -0.00146484C5.33428 -0.00146484 2.44947 1.87653 0.99884 4.62792Z" fill="#FF3D00"/>
<path d="M8.66062 17.3197C10.8976 17.3197 12.9302 16.4636 14.467 15.0715L11.7866 12.8033C10.8881 13.4871 9.78977 13.8568 8.66062 13.8555C6.40803 13.8555 4.49536 12.4192 3.77481 10.4148L0.950623 12.5907C2.38393 15.3954 5.29472 17.3197 8.66062 17.3197Z" fill="#4CAF50"/>
<path d="M17.1526 6.96282H16.455V6.92688H8.66052V10.391H13.555C13.2134 11.3508 12.5982 12.1894 11.7852 12.8034L11.7865 12.8025L14.4669 15.0706C14.2773 15.243 17.321 12.9891 17.321 8.65895C17.321 8.07827 17.2613 7.51145 17.1526 6.96282Z" fill="#1976D2"/>
</g>
<defs>
<clipPath id="clip0_1_2458">
<rect width="17.321" height="17.321" fill="white"/>
</clipPath>
</defs>
</svg>
