<svg width="18" height="18" viewBox="0 0 18 18" fill="none" xmlns="http://www.w3.org/2000/svg">
<path fill-rule="evenodd" clip-rule="evenodd" d="M0.449653 5.04278C0 5.86426 0 6.8552 0 8.83709V10.1544C0 13.5327 0 15.2219 1.01464 16.2715C2.02928 17.321 3.66232 17.321 6.92839 17.321H10.3926C13.6587 17.321 15.2917 17.321 16.3063 16.2715C17.321 15.2219 17.321 13.5327 17.321 10.1544V8.83709C17.321 6.8552 17.321 5.86426 16.8713 5.04278C16.4217 4.2213 15.6002 3.71146 13.9572 2.69179L12.2251 1.6168C10.4884 0.538933 9.62002 0 8.66049 0C7.70096 0 6.8326 0.538934 5.09586 1.6168L3.36376 2.69179C1.72079 3.71146 0.899306 4.2213 0.449653 5.04278ZM6.06234 13.2072C5.70361 13.2072 5.41281 13.4981 5.41281 13.8568C5.41281 14.2155 5.70361 14.5063 6.06234 14.5063H11.2586C11.6174 14.5063 11.9082 14.2155 11.9082 13.8568C11.9082 13.4981 11.6174 13.2072 11.2586 13.2072H6.06234Z" fill="url(#paint0_linear_462_158)"/>
<defs>
<linearGradient id="paint0_linear_462_158" x1="8.66049" y1="17.321" x2="8.66049" y2="0" gradientUnits="userSpaceOnUse">
<stop offset="1" stop-color="#D2B48C"/>
</linearGradient>
</defs>
</svg>
