<svg width="18" height="18" viewBox="0 0 18 18" fill="none" xmlns="http://www.w3.org/2000/svg">
<path d="M8.66049 17.321C7.46855 17.321 6.3459 17.0932 5.29253 16.6378C4.23915 16.1816 3.32178 15.5626 2.54042 14.7806C1.75905 13.9986 1.13998 13.0812 0.683222 12.0285C0.226461 10.9757 -0.00127764 9.85307 5.3909e-06 8.66049C5.3909e-06 7.4647 0.227744 6.34108 0.683222 5.28963C1.13934 4.23754 1.7584 3.32114 2.54042 2.54041C3.32242 1.75968 4.2398 1.14062 5.29253 0.683216C6.3459 0.227739 7.46855 0 8.66049 0C9.85628 0 10.9799 0.227739 12.0313 0.683216C13.0834 1.13934 14.0002 1.7584 14.7815 2.54041C15.5629 3.32242 16.1816 4.23883 16.6378 5.28963C17.0932 6.34172 17.321 7.46534 17.321 8.66049C17.321 9.85243 17.0932 10.9751 16.6378 12.0285C16.1816 13.0818 15.5626 13.9992 14.7806 14.7806C13.9986 15.5619 13.0822 16.181 12.0313 16.6378C10.9805 17.0945 9.85692 17.3223 8.66049 17.321ZM8.66049 16.3664C9.22503 15.6408 9.69077 14.9284 10.0577 14.2292C10.424 13.5299 10.722 12.7473 10.9517 11.8812H6.36931C6.624 12.796 6.92808 13.6031 7.28155 14.3023C7.63567 15.0016 8.09532 15.6896 8.66049 16.3664ZM7.43552 16.2221C6.98645 15.6928 6.57652 15.0385 6.20573 14.259C5.83493 13.4802 5.55908 12.6873 5.37817 11.8803H1.68784C2.23954 13.0767 3.02123 14.0582 4.03291 14.8248C5.04522 15.5908 6.17942 16.0565 7.43552 16.2221ZM9.88547 16.2221C11.1416 16.0565 12.2758 15.5908 13.2881 14.8248C14.2998 14.0582 15.0814 13.0767 15.6331 11.8803H11.9438C11.7 12.6995 11.393 13.4985 11.0229 14.2773C10.6521 15.0567 10.2729 15.7056 9.88547 16.2221ZM1.29523 10.919H5.17801C5.10488 10.5238 5.05356 10.1389 5.02405 9.76422C4.99326 9.39021 4.97786 9.0223 4.97786 8.66049C4.97786 8.29867 4.99294 7.93076 5.02309 7.55676C5.05324 7.18275 5.10456 6.79784 5.17705 6.40203H1.29619C1.19162 6.73561 1.10983 7.09903 1.05081 7.49228C0.991792 7.88489 0.962282 8.27429 0.962282 8.66049C0.962282 9.04668 0.991471 9.4364 1.04985 9.82965C1.10823 10.2229 1.19002 10.5857 1.29523 10.918M6.14029 10.918H11.1807C11.2538 10.5235 11.3052 10.145 11.3347 9.7825C11.3655 9.42069 11.3808 9.04668 11.3808 8.66049C11.3808 8.27429 11.3658 7.90029 11.3356 7.53847C11.3055 7.17666 11.2541 6.79816 11.1817 6.40299H6.13933C6.06684 6.79752 6.01552 7.17602 5.98537 7.53847C5.95521 7.90029 5.94014 8.27429 5.94014 8.66049C5.94014 9.04668 5.95521 9.42069 5.98537 9.7825C6.01552 10.1443 6.0678 10.5228 6.14029 10.918ZM12.1439 10.918H16.0258C16.1303 10.585 16.2121 10.2223 16.2711 9.82965C16.3295 9.4364 16.3587 9.04668 16.3587 8.66049C16.3587 8.27429 16.3295 7.88457 16.2711 7.49132C16.2128 7.09807 16.131 6.73529 16.0258 6.40299H12.143C12.2161 6.79752 12.2674 7.18211 12.2969 7.55676C12.3277 7.9314 12.3431 8.29931 12.3431 8.66049C12.3431 9.02166 12.328 9.38957 12.2979 9.76422C12.2677 10.1389 12.2164 10.5238 12.1439 10.919M11.9438 5.44071H15.6331C15.0693 4.21926 14.2969 3.23774 13.316 2.49615C12.3351 1.75455 11.1916 1.28271 9.88547 1.08064C10.3345 1.67147 10.7384 2.34731 11.097 3.10815C11.4556 3.86835 11.7379 4.64587 11.9438 5.44071ZM6.36931 5.44071H10.9517C10.6976 4.53745 10.3843 3.7208 10.0115 2.99076C9.63881 2.26071 9.18846 1.58198 8.66049 0.954578C8.13252 1.58134 7.68218 2.26007 7.30946 2.99076C6.93674 3.72144 6.62271 4.5381 6.36931 5.44071ZM1.6888 5.44071H5.37817C5.5841 4.64651 5.86636 3.86899 6.22497 3.10815C6.58358 2.34731 6.98742 1.67147 7.43648 1.08064C6.1188 1.28336 4.97241 1.75808 3.9973 2.50481C3.02219 3.25282 2.25237 4.23113 1.68784 5.43975" fill="#D2B48C"/>
</svg>
