<svg width="15" height="18" viewBox="0 0 15 18" fill="none" xmlns="http://www.w3.org/2000/svg">
<path d="M7.23769 0C9.15725 0 10.9982 0.762541 12.3555 2.11987C13.7128 3.4772 14.4754 5.31814 14.4754 7.2377C14.4754 10.2961 12.3264 13.6291 8.08395 17.2725C7.84805 17.4751 7.54729 17.5864 7.23631 17.5862C6.92532 17.5859 6.62475 17.4741 6.38921 17.271L6.10861 17.0275C2.05402 13.4792 0 10.2278 0 7.2377C0 5.31814 0.762541 3.4772 2.11987 2.11987C3.4772 0.762541 5.31814 0 7.23769 0ZM7.23769 1.11349C5.61346 1.11349 4.05574 1.75872 2.90723 2.90723C1.75872 4.05574 1.11349 5.61346 1.11349 7.2377C1.11349 9.83733 3.00494 12.8326 6.83981 16.1879L7.1167 16.4277C7.15036 16.4567 7.19329 16.4726 7.23769 16.4726C7.2821 16.4726 7.32503 16.4567 7.35869 16.4277C11.3791 12.9744 13.3619 9.89894 13.3619 7.2377C13.3619 6.43345 13.2035 5.63709 12.8957 4.89406C12.588 4.15104 12.1368 3.47591 11.5682 2.90723C10.9995 2.33854 10.3243 1.88744 9.58133 1.57967C8.8383 1.2719 8.04194 1.11349 7.23769 1.11349ZM7.23769 4.45397C7.97599 4.45397 8.68404 4.74725 9.20609 5.2693C9.72814 5.79135 10.0214 6.4994 10.0214 7.2377C10.0214 7.97599 9.72814 8.68404 9.20609 9.20609C8.68404 9.72814 7.97599 10.0214 7.23769 10.0214C6.4994 10.0214 5.79135 9.72814 5.2693 9.20609C4.74725 8.68404 4.45397 7.97599 4.45397 7.2377C4.45397 6.4994 4.74725 5.79135 5.2693 5.2693C5.79135 4.74725 6.4994 4.45397 7.23769 4.45397ZM7.23769 5.56746C6.79472 5.56746 6.36989 5.74343 6.05666 6.05666C5.74343 6.36989 5.56746 6.79472 5.56746 7.2377C5.56746 7.68067 5.74343 8.1055 6.05666 8.41873C6.36989 8.73196 6.79472 8.90793 7.23769 8.90793C7.68067 8.90793 8.1055 8.73196 8.41873 8.41873C8.73196 8.1055 8.90793 7.68067 8.90793 7.2377C8.90793 6.79472 8.73196 6.36989 8.41873 6.05666C8.1055 5.74343 7.68067 5.56746 7.23769 5.56746Z" fill="#8A8A8A"/>
</svg>
