<svg width="15" height="18" viewBox="0 0 15 18" fill="none" xmlns="http://www.w3.org/2000/svg">
<path d="M7.23584 0C3.43702 0 0 2.87832 0 7.32987C0 10.1724 2.21598 13.5156 6.63888 17.3682C6.98259 17.6632 7.49814 17.6632 7.84184 17.3682C12.2557 13.5156 14.4717 10.1724 14.4717 7.32987C14.4717 2.87832 11.0347 0 7.23584 0ZM7.23584 8.93887C6.24091 8.93887 5.42688 8.13437 5.42688 7.15109C5.42688 6.16782 6.24091 5.36332 7.23584 5.36332C8.23077 5.36332 9.0448 6.16782 9.0448 7.15109C9.0448 8.13437 8.23077 8.93887 7.23584 8.93887Z" fill="#D2B48C"/>
</svg>
