<svg width="18" height="18" viewBox="0 0 18 18" fill="none" xmlns="http://www.w3.org/2000/svg">
<circle cx="8.64923" cy="8.64923" r="8.64923" fill="white"/>
<path fill-rule="evenodd" clip-rule="evenodd" d="M5.06756 4.80568C4.17075 5.21562 3.51375 6.19066 3.51375 7.35337C3.51375 8.54123 3.99984 9.45683 4.69668 10.2415C5.27101 10.8882 5.96625 11.4242 6.64429 11.9469C6.80534 12.0711 6.96541 12.1945 7.12266 12.3185C7.40702 12.5426 7.66068 12.7394 7.90518 12.8822C8.14981 13.0252 8.34672 13.0905 8.51408 13.0905C8.68144 13.0905 8.87835 13.0252 9.12298 12.8822C9.36748 12.7394 9.62114 12.5426 9.9055 12.3185C10.0627 12.1945 10.2228 12.0711 10.3839 11.9469C11.0619 11.4242 11.7571 10.8882 12.3315 10.2415C13.0283 9.45683 13.5144 8.54123 13.5144 7.35337C13.5144 6.19066 12.8574 5.21562 11.9606 4.80568C11.0893 4.40743 9.91868 4.5129 8.80619 5.66874C8.72976 5.74814 8.62429 5.79301 8.51408 5.79301C8.40386 5.79301 8.2984 5.74814 8.22197 5.66874C7.10948 4.5129 5.93881 4.40743 5.06756 4.80568ZM8.51408 4.8244C7.26424 3.70618 5.86469 3.54975 4.73046 4.06821C3.53251 4.6158 2.70288 5.88729 2.70288 7.35337C2.70288 8.79429 3.30319 9.89351 4.09039 10.7799C4.72078 11.4898 5.49238 12.0839 6.17383 12.6086C6.3283 12.7275 6.47815 12.8429 6.62067 12.9552C6.89757 13.1735 7.19483 13.4063 7.49608 13.5823C7.7972 13.7583 8.14087 13.9013 8.51408 13.9013C8.88729 13.9013 9.23096 13.7583 9.53208 13.5823C9.83333 13.4063 10.1306 13.1735 10.4075 12.9552C10.55 12.8429 10.6999 12.7275 10.8543 12.6086C11.5358 12.0839 12.3074 11.4898 12.9378 10.7799C13.725 9.89351 14.3253 8.79429 14.3253 7.35337C14.3253 5.88729 13.4956 4.6158 12.2977 4.06821C11.1635 3.54975 9.76392 3.70618 8.51408 4.8244Z" fill="#DB9448"/>
</svg>
