<svg viewBox="0 0 28.5796 22.5173" xmlns="http://www.w3.org/2000/svg" xmlns:xlink="http://www.w3.org/1999/xlink" width="28.579590" height="22.517334" fill="none">
	<rect id="logos:mastercard" width="28.579620" height="22.517277" x="0.000122" y="0.000000" fill="rgb(255,255,255)" fill-opacity="0" />
	<path id="Vector" d="M5.19925 22.4041L5.19925 20.9137C5.19925 20.3423 4.85619 19.9698 4.26817 19.9698C3.97421 19.9698 3.6557 20.0692 3.43518 20.3921C3.26376 20.1188 3.0188 19.9698 2.65129 19.9698C2.40622 19.9698 2.16137 20.0443 1.96529 20.3175L1.96529 20.0195L1.45081 20.0195L1.45081 22.4041L1.96529 22.4041L1.96529 21.0875C1.96529 20.6654 2.18581 20.4666 2.52887 20.4666C2.87171 20.4666 3.04335 20.6901 3.04335 21.0875L3.04335 22.4041L3.55783 22.4041L3.55783 21.0875C3.55783 20.6654 3.80268 20.4666 4.12119 20.4666C4.46425 20.4666 4.63567 20.6901 4.63567 21.0875L4.63567 22.4041L5.19925 22.4041ZM12.8183 20.0195L11.9855 20.0195L11.9855 19.2992L11.471 19.2992L11.471 20.0195L11.0055 20.0195L11.0055 20.4913L11.4709 20.4913L11.4709 21.5844C11.4709 22.1309 11.6914 22.4537 12.2794 22.4537C12.4999 22.4537 12.7448 22.3793 12.9164 22.2799L12.7694 21.8328C12.6224 21.9321 12.451 21.957 12.3284 21.957C12.0835 21.957 11.9855 21.808 11.9855 21.5595L11.9855 20.4913L12.8183 20.4913L12.8183 20.0195ZM17.1793 19.9697C16.8853 19.9697 16.6893 20.1188 16.5668 20.3175L16.5668 20.0195L16.0523 20.0195L16.0523 22.4041L16.5668 22.4041L16.5668 21.0627C16.5668 20.6654 16.7382 20.4418 17.0567 20.4418C17.1547 20.4418 17.2772 20.4667 17.3752 20.4914L17.5222 19.9947C17.4242 19.9698 17.2772 19.9698 17.1793 19.9698M10.589 20.2183C10.3439 20.0444 10.001 19.9699 9.63348 19.9699C9.04557 19.9699 8.65363 20.268 8.65363 20.7399C8.65363 21.1374 8.94758 21.3609 9.46206 21.4355L9.70703 21.4604C9.97654 21.5099 10.1235 21.5845 10.1235 21.7087C10.1235 21.8825 9.92755 22.0068 9.58449 22.0068C9.24143 22.0068 8.97202 21.8825 8.80049 21.7584L8.55553 22.1558C8.82505 22.3545 9.19255 22.4538 9.55994 22.4538C10.2459 22.4538 10.638 22.131 10.638 21.6838C10.638 21.2616 10.3195 21.038 9.82945 20.9635L9.58449 20.9386C9.36397 20.9137 9.19255 20.8642 9.19255 20.7151C9.19255 20.5412 9.36397 20.4419 9.63348 20.4419C9.92755 20.4419 10.2215 20.566 10.3685 20.6406L10.589 20.2183ZM24.2595 19.9699C23.9655 19.9699 23.7695 20.1189 23.647 20.3176L23.647 20.0196L23.1325 20.0196L23.1325 22.4042L23.647 22.4042L23.647 21.0629C23.647 20.6655 23.8185 20.4419 24.1369 20.4419C24.235 20.4419 24.3575 20.4668 24.4555 20.4916L24.6025 19.9948C24.5045 19.9699 24.3575 19.9699 24.2595 19.9699ZM17.6937 21.2119C17.6937 21.9322 18.1837 22.4538 18.9432 22.4538C19.2862 22.4538 19.5311 22.3794 19.7761 22.1807L19.5311 21.7584C19.3352 21.9074 19.1392 21.9819 18.9187 21.9819C18.5022 21.9819 18.2082 21.6838 18.2082 21.2119C18.2082 20.7648 18.5022 20.4667 18.9187 20.4419C19.1392 20.4419 19.3352 20.5163 19.5311 20.6655L19.7761 20.2432C19.5311 20.0444 19.2862 19.9699 18.9432 19.9699C18.1837 19.9699 17.6937 20.4916 17.6937 21.2119ZM22.4466 21.2119L22.4466 20.0196L21.9321 20.0196L21.9321 20.3176C21.7606 20.0942 21.5156 19.9699 21.1971 19.9699C20.5356 19.9699 20.0212 20.4916 20.0212 21.2119C20.0212 21.9322 20.5356 22.4538 21.1971 22.4538C21.5401 22.4538 21.7851 22.3297 21.9321 22.1061L21.9321 22.4042L22.4466 22.4042L22.4466 21.2119ZM20.5601 21.2119C20.5601 20.7896 20.8296 20.4419 21.2705 20.4419C21.687 20.4419 21.9811 20.7648 21.9811 21.2119C21.9811 21.6342 21.687 21.9819 21.2705 21.9819C20.8296 21.957 20.5601 21.6342 20.5601 21.2119ZM14.4109 19.9699C13.7249 19.9699 13.2348 20.4667 13.2348 21.2119C13.2348 21.9571 13.7248 22.4538 14.4353 22.4538C14.7783 22.4538 15.1213 22.3545 15.3909 22.131L15.1458 21.7584C14.9498 21.9074 14.7048 22.0068 14.4599 22.0068C14.1414 22.0068 13.8229 21.8578 13.7493 21.4354L15.4888 21.4354L15.4888 21.2368C15.5134 20.4667 15.0725 19.9699 14.4109 19.9699ZM14.4108 20.417C14.7292 20.417 14.9498 20.6158 14.9987 20.9884L13.7738 20.9884C13.8228 20.6655 14.0433 20.417 14.4108 20.417ZM27.1748 21.2119L27.1748 19.0757L26.6603 19.0757L26.6603 20.3176C26.4888 20.0942 26.2438 19.9699 25.9253 19.9699C25.2638 19.9699 24.7494 20.4916 24.7494 21.2119C24.7494 21.9322 25.2638 22.4538 25.9253 22.4538C26.2684 22.4538 26.5133 22.3297 26.6603 22.1061L26.6603 22.4042L27.1748 22.4042L27.1748 21.2119ZM25.2884 21.2119C25.2884 20.7896 25.5578 20.4419 25.9988 20.4419C26.4153 20.4419 26.7093 20.7648 26.7093 21.2119C26.7093 21.6342 26.4153 21.9819 25.9988 21.9819C25.5578 21.957 25.2884 21.6342 25.2884 21.2119ZM8.08993 21.2119L8.08993 20.0196L7.57545 20.0196L7.57545 20.3176C7.40392 20.0942 7.15896 19.9699 6.84045 19.9699C6.17899 19.9699 5.66451 20.4916 5.66451 21.2119C5.66451 21.9322 6.17899 22.4538 6.84045 22.4538C7.18351 22.4538 7.42847 22.3297 7.57545 22.1061L7.57545 22.4042L8.08993 22.4042L8.08993 21.2119ZM6.17899 21.2119C6.17899 20.7896 6.44851 20.4419 6.88944 20.4419C7.30594 20.4419 7.60001 20.7648 7.60001 21.2119C7.60001 21.6342 7.30594 21.9819 6.88944 21.9819C6.44851 21.957 6.17899 21.6342 6.17899 21.2119Z" fill="rgb(40,40,40)" fill-rule="nonzero" />
	<path id="Vector" d="M10.4171 1.91016L18.1343 1.91016L18.1343 15.9694L10.4171 15.9694L10.4171 1.91016Z" fill="rgb(255,95,0)" fill-rule="nonzero" />
	<path id="Vector" d="M10.9077 8.94083C10.9077 6.08431 12.2306 3.55061 14.2639 1.91115C12.7696 0.718862 10.8832 -0.00146484 8.8253 -0.00146484C3.9498 -0.00146484 0.00549316 3.99767 0.00549316 8.94083C0.00549316 13.884 3.9498 17.8831 8.82519 17.8831C10.8831 17.8831 12.7695 17.1628 14.2639 15.9704C12.2306 14.3558 10.9077 11.7974 10.9077 8.94083Z" fill="rgb(235,0,27)" fill-rule="nonzero" />
	<path id="Vector" d="M28.5466 8.94083C28.5466 13.8839 24.6023 17.8831 19.727 17.8831C17.669 17.8831 15.7827 17.1628 14.2882 15.9704C16.3461 14.3311 17.6446 11.7974 17.6446 8.94083C17.6446 6.08431 16.3216 3.55061 14.2882 1.91115C15.7825 0.718862 17.669 -0.00146484 19.727 -0.00146484C24.6023 -0.00146484 28.5466 4.02256 28.5466 8.94083Z" fill="rgb(247,158,27)" fill-rule="nonzero" />
</svg>
