<svg width="18" height="17" viewBox="0 0 18 17" fill="none" xmlns="http://www.w3.org/2000/svg">
<path d="M0 3.13943C0 2.3068 0.33076 1.50827 0.919517 0.919517C1.50827 0.33076 2.3068 0 3.13943 0H14.1816C15.0142 0 15.8127 0.33076 16.4015 0.919517C16.9902 1.50827 17.321 2.3068 17.321 3.13943V9.85131C17.321 10.6839 16.9902 11.4825 16.4015 12.0712C15.8127 12.66 15.0142 12.9907 14.1816 12.9907H9.69845L5.00013 16.3068C4.35536 16.7624 3.4642 16.3008 3.4642 15.5109V12.9907H3.13943C2.3068 12.9907 1.50827 12.66 0.919517 12.0712C0.33076 11.4825 0 10.6839 0 9.85131V3.13943Z" fill="#D2B48C"/>
</svg>
