<svg viewBox="0 0 20.7852 22.4431" xmlns="http://www.w3.org/2000/svg" xmlns:xlink="http://www.w3.org/1999/xlink" width="20.785156" height="22.443115" fill="none" customFrame="#000000">
	<rect id="hugeicons:note-edit" width="20.785177" height="20.785177" x="0.000122" y="0.000000" fill="rgb(255,255,255)" fill-opacity="0" />
	<g id="Group">
		<path id="Vector" d="M8.91168 19.6687C9.27041 19.6687 9.56122 19.3779 9.56122 19.0191C9.56122 18.6604 9.27041 18.3696 8.91168 18.3696L8.91168 19.0191L8.91168 19.6687ZM3.03987 3.45277L3.50232 3.90889L3.50366 3.90753L3.03987 3.45277ZM16.0211 3.49867L16.484 3.043L16.4837 3.04278L16.0211 3.49867ZM16.2376 9.65368C16.2376 10.0124 16.5284 10.3032 16.8871 10.3032C17.2459 10.3032 17.5367 10.0124 17.5367 9.65368L16.8871 9.65368L16.2376 9.65368ZM14.4587 1.73193C14.4587 1.3732 14.1679 1.0824 13.8092 1.0824C13.4505 1.0824 13.1597 1.3732 13.1597 1.73193L13.8092 1.73193L14.4587 1.73193ZM13.1597 3.46403C13.1597 3.82276 13.4505 4.11357 13.8092 4.11357C14.1679 4.11357 14.4587 3.82276 14.4587 3.46403L13.8092 3.46403L13.1597 3.46403ZM10.1285 1.73193C10.1285 1.3732 9.83767 1.0824 9.47894 1.0824C9.12022 1.0824 8.82941 1.3732 8.82941 1.73193L9.47894 1.73193L10.1285 1.73193ZM8.82941 3.46403C8.82941 3.82276 9.12022 4.11357 9.47894 4.11357C9.83767 4.11357 10.1285 3.82276 10.1285 3.46403L9.47894 3.46403L8.82941 3.46403ZM5.79824 1.73193C5.79824 1.3732 5.50743 1.0824 5.1487 1.0824C4.78997 1.0824 4.49916 1.3732 4.49916 1.73193L5.1487 1.73193L5.79824 1.73193ZM4.49916 3.46403C4.49916 3.82276 4.78997 4.11357 5.1487 4.11357C5.50743 4.11357 5.79824 3.82276 5.79824 3.46403L5.1487 3.46403L4.49916 3.46403ZM6.06238 12.341C5.70365 12.341 5.41285 12.6318 5.41285 12.9906C5.41285 13.3493 5.70365 13.6401 6.06238 13.6401L6.06238 12.9906L6.06238 12.341ZM9.52658 13.6401C9.88531 13.6401 10.1761 13.3493 10.1761 12.9906C10.1761 12.6318 9.88531 12.341 9.52658 12.341L9.52658 12.9906L9.52658 13.6401ZM6.06238 8.01079C5.70365 8.01079 5.41285 8.3016 5.41285 8.66033C5.41285 9.01905 5.70365 9.30986 6.06238 9.30986L6.06238 8.66033L6.06238 8.01079ZM12.9908 9.30986C13.3495 9.30986 13.6403 9.01905 13.6403 8.66033C13.6403 8.3016 13.3495 8.01079 12.9908 8.01079L12.9908 8.66033L12.9908 9.30986ZM8.91168 19.0191L8.91168 18.3696L8.13224 18.3696L8.13224 19.0191L8.13224 19.6687L8.91168 19.6687L8.91168 19.0191ZM8.13224 19.0191L8.13224 18.3696C6.70714 18.3696 5.70444 18.3682 4.9459 18.2646C4.20705 18.1637 3.79753 17.977 3.50103 17.6758L3.03814 18.1314L2.57525 18.5871C3.15259 19.1736 3.88365 19.4307 4.77016 19.5517C5.63699 19.6701 6.74441 19.6687 8.13224 19.6687L8.13224 19.0191ZM3.03814 18.1314L3.50103 17.6758C3.20319 17.3732 3.01766 16.9533 2.9179 16.1979C2.81582 15.4249 2.8147 14.404 2.8147 12.9568L2.16516 12.9568L1.51562 12.9568C1.51562 14.3676 1.51407 15.4901 1.63001 16.368C1.74829 17.2636 1.99924 18.002 2.57525 18.5871L3.03814 18.1314ZM2.16516 12.9568L2.8147 12.9568L2.8147 8.62655L2.16516 8.62655L1.51562 8.62655L1.51562 12.9568L2.16516 12.9568ZM2.16516 8.62655L2.8147 8.62655C2.8147 7.17946 2.81604 6.15855 2.91841 5.38579C3.01844 4.6307 3.20427 4.21107 3.50231 3.90889L3.03987 3.45277L2.57743 2.99665C2.00076 3.58131 1.74923 4.31959 1.63059 5.21519C1.51428 6.09311 1.51562 7.21567 1.51562 8.62655L2.16516 8.62655ZM3.03987 3.45277L3.50366 3.90753C3.79921 3.6061 4.20788 3.41911 4.94631 3.31806C5.70451 3.21431 6.70709 3.21288 8.13224 3.21288L8.13224 2.56334L8.13224 1.9138C6.74446 1.9138 5.63691 1.91238 4.77019 2.03098C3.88369 2.15229 3.15264 2.41002 2.57609 2.99802L3.03987 3.45277ZM8.13224 2.56334L8.13224 3.21288L10.6897 3.21288L10.6897 2.56334L10.6897 1.9138L8.13224 1.9138L8.13224 2.56334ZM10.6897 2.56334L10.6897 3.21288C12.1074 3.21288 13.1739 3.2262 13.9921 3.34161C14.8078 3.45666 15.2685 3.66036 15.5584 3.95456L16.0211 3.49867L16.4837 3.04278C15.8998 2.45015 15.1017 2.18619 14.1736 2.05527C13.248 1.92473 12.0858 1.9138 10.6897 1.9138L10.6897 2.56334ZM16.0211 3.49867L15.5582 3.95434C15.8582 4.25911 16.0407 4.66909 16.1381 5.4085C16.2384 6.16927 16.2376 7.17707 16.2376 8.62568L16.8871 8.62568L17.5367 8.62568C17.5367 7.21633 17.5402 6.10491 17.4261 5.23881C17.3092 4.35134 17.0587 3.6268 16.484 3.043L16.0211 3.49867ZM16.8871 8.62568L16.2376 8.62568L16.2376 9.65368L16.8871 9.65368L17.5367 9.65368L17.5367 8.62568L16.8871 8.62568ZM13.8092 1.73193L13.1597 1.73193L13.1597 3.46403L13.8092 3.46403L14.4587 3.46403L14.4587 1.73193L13.8092 1.73193ZM9.47894 1.73193L8.82941 1.73193L8.82941 3.46403L9.47894 3.46403L10.1285 3.46403L10.1285 1.73193L9.47894 1.73193ZM5.1487 1.73193L4.49916 1.73193L4.49916 3.46403L5.1487 3.46403L5.79824 3.46403L5.79824 1.73193L5.1487 1.73193ZM6.06238 12.9906L6.06238 13.6401L9.52658 13.6401L9.52658 12.9906L9.52658 12.341L6.06238 12.341L6.06238 12.9906ZM6.06238 8.66033L6.06238 9.30986L12.9908 9.30986L12.9908 8.66033L12.9908 8.01079L6.06238 8.01079L6.06238 8.66033Z" fill-rule="nonzero" stroke="rgb(138,138,138)" stroke-linecap="round" stroke-linejoin="round" stroke-width="1.29907358" />
		<path id="Vector" d="M17.9793 12.8859L17.4948 13.3185C17.5097 13.3353 17.5256 13.3512 17.5422 13.3664L17.9793 12.8859ZM16.2022 12.2165L16.2934 12.8596C16.3257 12.855 16.3577 12.848 16.3889 12.8386L16.2022 12.2165ZM14.0587 14.1997L13.6258 13.7155C13.6179 13.7226 13.6101 13.7299 13.6025 13.7374L14.0587 14.1997ZM12.2816 16.034L12.8345 16.3749C12.8453 16.3574 12.8552 16.3394 12.8643 16.321L12.2816 16.034ZM11.8945 17.2889L12.5345 17.3998C12.5356 17.3931 12.5367 17.3863 12.5377 17.3795L11.8945 17.2889ZM13.5356 18.8478L13.6301 19.4905C13.6374 19.4894 13.6447 19.4882 13.652 19.4869L13.5356 18.8478ZM14.6858 18.4919L15.0197 19.049L15.0201 19.0487L14.6858 18.4919ZM16.9028 16.3475L17.358 16.8109C17.3635 16.8056 17.3688 16.8001 17.3741 16.7945L16.9028 16.3475ZM18.5544 14.5176L19.1572 14.7595C19.167 14.735 19.1753 14.71 19.1821 14.6846L18.5544 14.5176ZM17.9793 12.8859L18.4639 12.4534C18.032 11.9696 17.6167 11.6605 17.1642 11.5364C16.6999 11.409 16.3037 11.5079 16.0155 11.5944L16.2022 12.2165L16.3889 12.8386C16.6229 12.7684 16.7229 12.7624 16.8205 12.7892C16.9299 12.8192 17.142 12.9233 17.4948 13.3185L17.9793 12.8859ZM16.2022 12.2165L16.111 11.5734C15.9159 11.6011 15.7556 11.6986 15.6715 11.7534C15.5678 11.8211 15.4627 11.9044 15.3638 11.9892C15.1648 12.1597 14.9415 12.3783 14.7267 12.5963C14.2695 13.0601 13.868 13.499 13.6258 13.7155L14.0587 14.1997L14.4917 14.684C14.7725 14.4329 15.2596 13.9061 15.6518 13.5082C15.8617 13.2953 16.0533 13.109 16.2088 12.9758C16.2871 12.9088 16.3442 12.8656 16.3813 12.8415C16.4379 12.8045 16.3969 12.8449 16.2934 12.8596L16.2022 12.2165ZM14.0587 14.1997L13.6025 13.7374C13.172 14.1623 12.7385 14.5956 12.4044 14.9382C12.2378 15.109 12.0927 15.2606 11.9842 15.3787C11.9303 15.4372 11.8813 15.4921 11.8417 15.5392C11.8221 15.5625 11.747 15.6493 11.6989 15.7471L12.2816 16.034L12.8643 16.321C12.8302 16.3902 12.7945 16.4247 12.8361 16.3751C12.8578 16.3493 12.8921 16.3105 12.9405 16.2579C13.0363 16.1537 13.1711 16.0127 13.3345 15.8451C13.6603 15.5109 14.0872 15.0842 14.515 14.6621L14.0587 14.1997ZM12.2816 16.034L11.7287 15.6932C11.5007 16.063 11.3315 16.6286 11.2513 17.1984L11.8945 17.2889L12.5377 17.3795C12.6047 16.9031 12.7368 16.5334 12.8345 16.3749L12.2816 16.034ZM11.8945 17.2889L11.2545 17.178C11.1912 17.543 11.1007 18.001 11.0627 18.3575C11.044 18.5332 11.031 18.7392 11.0564 18.9255C11.0727 19.0456 11.15 19.5087 11.6194 19.6531L11.8105 19.0323L12.0015 18.4115C12.1701 18.4634 12.2651 18.5793 12.3068 18.6552C12.3422 18.7197 12.3453 18.7634 12.3436 18.7507C12.3402 18.7256 12.3382 18.6475 12.3545 18.4951C12.3864 18.195 12.4617 17.8196 12.5345 17.3998L11.8945 17.2889ZM11.8105 19.0323L11.6194 19.6531C11.7927 19.7064 11.9756 19.7061 12.1016 19.7008C12.244 19.6948 12.4018 19.677 12.5598 19.6554C12.8533 19.6154 13.2776 19.5423 13.6301 19.4905L13.5356 18.8478L13.4412 18.2052C13.0099 18.2686 12.6955 18.3258 12.3842 18.3683C12.2399 18.3879 12.1289 18.3994 12.047 18.4029C11.9488 18.407 11.9521 18.3963 12.0015 18.4115L11.8105 19.0323ZM13.5356 18.8478L13.652 19.4869C14.1851 19.3898 14.6506 19.2702 15.0197 19.049L14.6858 18.4919L14.3518 17.9347C14.1978 18.0271 13.9323 18.1154 13.4193 18.2088L13.5356 18.8478ZM14.6858 18.4919L15.0201 19.0487C15.2881 18.8878 15.6115 18.5708 15.9533 18.2264C16.3248 17.8521 16.7753 17.3833 17.358 16.8109L16.9028 16.3475L16.4477 15.8842C15.8587 16.4627 15.3838 16.9561 15.0313 17.3113C14.649 17.6963 14.4497 17.876 14.3514 17.935L14.6858 18.4919ZM16.9028 16.3475L17.3741 16.7945C17.7409 16.4078 18.0521 16.1306 18.3848 15.7972C18.6762 15.5053 18.9974 15.1577 19.1572 14.7595L18.5544 14.5176L17.9516 14.2757C17.9018 14.3997 17.7639 14.5804 17.4654 14.8795C17.2081 15.1372 16.7983 15.5139 16.4316 15.9005L16.9028 16.3475ZM18.5544 14.5176L19.1821 14.6846C19.3173 14.1764 19.2965 13.7227 19.1179 13.3102C18.9497 12.9219 18.6671 12.6336 18.4165 12.4055L17.9793 12.8859L17.5422 13.3664C17.7627 13.567 17.872 13.7021 17.9258 13.8264C17.969 13.9263 18.0002 14.0742 17.9267 14.3506L18.5544 14.5176Z" opacity="0.930000007" fill-rule="nonzero" stroke="rgb(138,138,138)" stroke-linecap="round" stroke-linejoin="round" stroke-width="1.29907358" />
	</g>
</svg>
