<svg width="15" height="15" viewBox="0 0 15 15" fill="none" xmlns="http://www.w3.org/2000/svg">
<path d="M13.0469 8.76759L11.8167 7.5373V5.90751C11.8152 4.78122 11.3963 3.69546 10.6407 2.86017C9.88519 2.02489 8.84678 1.49942 7.72627 1.38537V0.453674H6.8173V1.38537C5.6968 1.49942 4.65838 2.02489 3.90285 2.86017C3.14731 3.69546 2.72833 4.78122 2.72692 5.90751V7.5373L1.49663 8.76759C1.41139 8.85281 1.36349 8.96839 1.36346 9.08892V10.4524C1.36346 10.5729 1.41135 10.6885 1.49658 10.7737C1.58181 10.859 1.69741 10.9069 1.81795 10.9069H4.99936V11.26C4.98927 11.8366 5.19242 12.3967 5.56986 12.8327C5.94729 13.2688 6.47243 13.5502 7.04454 13.6229C7.36049 13.6542 7.6795 13.6191 7.98105 13.5197C8.28261 13.4203 8.56002 13.259 8.79546 13.046C9.0309 12.833 9.21916 12.573 9.34811 12.2829C9.47707 11.9928 9.54387 11.6788 9.54422 11.3613V10.9069H12.7256C12.8462 10.9069 12.9618 10.859 13.047 10.7737C13.1322 10.6885 13.1801 10.5729 13.1801 10.4524V9.08892C13.1801 8.96839 13.1322 8.85281 13.0469 8.76759ZM8.63525 11.3613C8.63525 11.723 8.4916 12.0698 8.2359 12.3255C7.9802 12.5812 7.6334 12.7248 7.27179 12.7248C6.91018 12.7248 6.56337 12.5812 6.30768 12.3255C6.05198 12.0698 5.90833 11.723 5.90833 11.3613V10.9069H8.63525V11.3613ZM12.2711 9.99789H2.27244V9.27707L3.50273 8.04678C3.58797 7.96157 3.63587 7.84598 3.6359 7.72546V5.90751C3.6359 4.94321 4.01896 4.01841 4.70082 3.33655C5.38269 2.65469 6.30749 2.27162 7.27179 2.27162C8.23609 2.27162 9.16089 2.65469 9.84275 3.33655C10.5246 4.01841 10.9077 4.94321 10.9077 5.90751V7.72546C10.9077 7.84598 10.9556 7.96157 11.0408 8.04678L12.2711 9.27707V9.99789Z" fill="white"/>
<circle cx="11.2714" cy="2.54564" r="1.81795" fill="#CE1225"/>
</svg>
