<svg width="15" height="18" viewBox="0 0 15 18" fill="none" xmlns="http://www.w3.org/2000/svg">
<path d="M2.22699 10.3926C1.63635 10.3926 1.06991 10.6272 0.65227 11.0449C0.234631 11.4625 2.86102e-06 12.0289 2.86102e-06 12.6196V13.1503C2.86102e-06 15.8056 3.1252 17.8159 7.42328 17.8159C11.7214 17.8159 14.8466 15.9103 14.8466 13.1503V12.6196C14.8466 12.0289 14.6119 11.4625 14.1943 11.0449C13.7766 10.6272 13.2102 10.3926 12.6196 10.3926H2.22699ZM2.22699 11.5061H12.6196C12.8963 11.5061 13.163 11.6091 13.3679 11.795C13.5728 11.981 13.7011 12.2365 13.7279 12.5119L13.7331 12.6196V13.1503C13.7331 15.1353 11.2173 16.7024 7.42328 16.7024C3.76657 16.7024 1.22113 15.1398 1.11646 13.2699L1.11349 13.1503V12.6196C1.11349 12.3429 1.2165 12.0761 1.40244 11.8712C1.58839 11.6663 1.84396 11.538 2.11935 11.5113L2.22699 11.5061ZM7.42328 0C6.83838 -8.71574e-09 6.2592 0.115205 5.71882 0.339038C5.17844 0.562871 4.68744 0.890948 4.27385 1.30454C3.86026 1.71813 3.53218 2.20913 3.30835 2.74951C3.08452 3.28989 2.96931 3.86906 2.96931 4.45397C2.96931 5.03887 3.08452 5.61805 3.30835 6.15843C3.53218 6.69881 3.86026 7.18981 4.27385 7.6034C4.68744 8.01698 5.17844 8.34506 5.71882 8.56889C6.2592 8.79273 6.83838 8.90793 7.42328 8.90793C8.60455 8.90793 9.73743 8.43868 10.5727 7.6034C11.408 6.76812 11.8772 5.63523 11.8772 4.45397C11.8772 3.2727 11.408 2.13982 10.5727 1.30454C9.73743 0.469256 8.60455 1.76022e-08 7.42328 0ZM7.42328 1.11349C8.30923 1.11349 9.15889 1.46543 9.78535 2.09189C10.4118 2.71835 10.7638 3.56802 10.7638 4.45397C10.7638 5.33992 10.4118 6.18958 9.78535 6.81604C9.15889 7.4425 8.30923 7.79444 7.42328 7.79444C6.53733 7.79444 5.68767 7.4425 5.06121 6.81604C4.43475 6.18958 4.08281 5.33992 4.08281 4.45397C4.08281 3.56802 4.43475 2.71835 5.06121 2.09189C5.68767 1.46543 6.53733 1.11349 7.42328 1.11349Z" fill="#8A8A8A"/>
</svg>
