<svg width="23" height="21" viewBox="0 0 23 21" fill="none" xmlns="http://www.w3.org/2000/svg">
<path d="M19.2074 15.2918C19.3113 14.9748 19.368 14.6379 19.368 14.2898V6.49532C19.368 5.57656 18.9699 4.69543 18.2612 4.04577C17.5524 3.3961 16.5912 3.03113 15.5889 3.03113H7.08589C6.0836 3.03113 5.12237 3.3961 4.41364 4.04577C3.70492 4.69543 3.30676 5.57656 3.30676 6.49532V14.3504C3.3241 15.2586 3.7299 16.1242 4.43676 16.7608C5.14361 17.3975 6.09495 17.7541 7.08589 17.754H15.5889L15.6995 17.7522M19.2074 15.2918L19.1243 15.2017L16.7945 12.6244C16.6177 12.4288 16.3962 12.2714 16.1456 12.163C15.8951 12.0547 15.6216 11.9983 15.3446 11.9976C15.0676 11.9969 14.7938 12.0521 14.5426 12.1592C14.2914 12.2663 14.069 12.4228 13.8911 12.6174L12.6516 13.9737L12.4494 14.1997M19.2074 15.2918C18.9782 15.9875 18.5162 16.5986 17.8866 17.0404C17.2571 17.4821 16.4919 17.7311 15.6995 17.7522M12.4494 14.1997L15.6116 17.6604L15.6995 17.7522M12.4494 14.1997L9.4006 10.8628C9.22325 10.6688 9.00165 10.5127 8.75142 10.4057C8.50119 10.2986 8.2284 10.2431 7.95225 10.2431C7.6761 10.2431 7.40331 10.2986 7.15308 10.4057C6.90285 10.5127 6.68125 10.6688 6.5039 10.8628L3.47493 14.1772L3.30771 14.3513" stroke="#8A8A8A" stroke-width="1.29907" stroke-linecap="round" stroke-linejoin="round"/>
<path d="M14.2577 9.01477C15.0404 9.01477 15.6749 8.43316 15.6749 7.7157C15.6749 6.99824 15.0404 6.41663 14.2577 6.41663C13.4751 6.41663 12.8406 6.99824 12.8406 7.7157C12.8406 8.43316 13.4751 9.01477 14.2577 9.01477Z" fill="#8A8A8A"/>
</svg>
