<svg width="17" height="17" viewBox="0 0 17 17" fill="none" xmlns="http://www.w3.org/2000/svg">
<path d="M16.0219 16.0219L12.2607 12.2607M12.2607 12.2607C12.9041 11.6173 13.4144 10.8535 13.7626 10.0129C14.1108 9.17234 14.29 8.27138 14.29 7.36152C14.29 6.45166 14.1108 5.55071 13.7626 4.7101C13.4144 3.8695 12.9041 3.10571 12.2607 2.46234C11.6173 1.81897 10.8535 1.30862 10.0129 0.960429C9.17232 0.61224 8.27137 0.433029 7.36151 0.433029C6.45164 0.433029 5.55069 0.61224 4.71009 0.960429C3.86948 1.30862 3.10569 1.81897 2.46232 2.46234C1.16298 3.76168 0.433014 5.52397 0.433014 7.36152C0.433014 9.19907 1.16298 10.9614 2.46232 12.2607C3.76167 13.56 5.52396 14.29 7.36151 14.29C9.19906 14.29 10.9613 13.56 12.2607 12.2607Z" stroke="white" stroke-width="0.866049" stroke-linecap="round" stroke-linejoin="round"/>
</svg>
