<svg width="19" height="22" viewBox="0 0 19 22" fill="none" xmlns="http://www.w3.org/2000/svg">
<path d="M18.0501 19.595L16.7533 18.0435C16.0163 17.1613 15.6106 16.0316 15.6108 14.8626V9.68503C15.6091 8.05179 15.0462 6.47304 14.0236 5.23394C13.0011 3.99485 11.5865 3.17711 10.0352 2.92846V0.918012C10.0352 0.67454 9.94227 0.441039 9.77682 0.268879C9.61137 0.0967181 9.38696 0 9.15298 0C8.91901 0 8.69462 0.0967181 8.52918 0.268879C8.36373 0.441039 8.27077 0.67454 8.27077 0.918012V2.89175C6.6702 3.08631 5.19398 3.88556 4.12227 5.13782C3.05057 6.39008 2.45798 8.00819 2.45697 9.68503V14.6607C2.45737 15.7457 2.10789 16.7995 1.46448 17.6534L0 19.5904H6.70043C6.8599 20.0316 7.12094 20.4254 7.46065 20.7373C7.80037 21.0491 8.20842 21.2695 8.64901 21.3791C9.08961 21.4888 9.5493 21.4843 9.98784 21.3661C10.4264 21.2479 10.8304 21.0196 11.1644 20.7012C11.4811 20.3917 11.7242 20.0099 11.8746 19.5858L18.0501 19.595Z" fill="white"/>
</svg>
