<svg width="51" height="51" viewBox="0 0 51 51" fill="none" xmlns="http://www.w3.org/2000/svg">
<rect width="50.2308" height="50.2308" rx="25.1154" fill="white"/>
<path d="M28.2427 25.7898H21.603M24.9229 22.47V29.1097" stroke="#D2B48C" stroke-width="1.7321" stroke-linecap="round"/>
<path d="M22.464 34.642H27.3818C30.8356 34.642 32.563 34.642 33.8035 33.8287C34.3389 33.478 34.8 33.0253 35.1602 32.4963C35.9891 31.279 35.9891 29.5826 35.9891 26.1919C35.9891 22.8012 35.9891 21.1048 35.1602 19.8875C34.8 19.3586 34.3389 18.9058 33.8035 18.5552C33.0068 18.0317 32.0086 17.8447 30.4804 17.7783C29.7511 17.7783 29.1236 17.2361 28.9809 16.5334C28.8718 16.0187 28.5883 15.5574 28.1784 15.2275C27.7685 14.8976 27.2573 14.7194 26.7311 14.723H23.1147C22.0214 14.723 21.0797 15.481 20.865 16.5334C20.7222 17.2361 20.0948 17.7783 19.3655 17.7783C17.8384 17.8447 16.8402 18.0328 16.0423 18.5552C15.5073 18.9059 15.0467 19.3587 14.6867 19.8875C13.8568 21.1048 13.8568 22.8001 13.8568 26.1919C13.8568 29.5837 13.8568 31.2779 14.6856 32.4963C15.0442 33.0231 15.5045 33.4757 16.0423 33.8287C17.2829 34.642 19.0103 34.642 22.464 34.642Z" stroke="#D2B48C" stroke-width="1.7321"/>
<path d="M32.6692 22.47H31.5626" stroke="#DB9448" stroke-width="1.7321" stroke-linecap="round"/>
</svg>
