<svg width="18" height="18" viewBox="0 0 18 18" fill="none" xmlns="http://www.w3.org/2000/svg">
<path d="M6.24361 12.89C5.90991 12.89 5.63939 13.1606 5.63939 13.4943C5.63939 13.828 5.90991 14.0985 6.24361 14.0985H11.0774C11.4111 14.0985 11.6816 13.828 11.6816 13.4943C11.6816 13.1606 11.4111 12.89 11.0774 12.89H6.24361Z" fill="#8A8A8A"/>
<path fill-rule="evenodd" clip-rule="evenodd" d="M8.66049 0C8.09001 0 7.57171 0.163397 7.0094 0.436843C6.46584 0.701174 5.83791 1.09089 5.05358 1.57768L3.3887 2.61095C2.64655 3.07154 2.05229 3.44035 1.59426 3.79113C1.11994 4.15437 0.755636 4.52431 0.492488 5.00506C0.229889 5.48481 0.111634 5.99527 0.0549357 6.59865C-1.14946e-05 7.18341 -6.26033e-06 7.89846 2.15273e-07 8.79522V10.0944C-1.10622e-05 11.6282 -1.99399e-05 12.8389 0.123022 13.7856C0.249239 14.7566 0.514443 15.5406 1.11366 16.1604C1.71565 16.7831 2.4817 17.0613 3.43004 17.1932C4.34917 17.321 5.52303 17.321 7.00239 17.321H10.3185C11.7979 17.321 12.9718 17.321 13.8909 17.1932C14.8393 17.0613 15.6053 16.7831 16.2073 16.1604C16.8065 15.5406 17.0717 14.7566 17.198 13.7856C17.321 12.8389 17.321 11.6282 17.321 10.0944V8.7952C17.321 7.89848 17.321 7.18339 17.266 6.59865C17.2093 5.99527 17.0911 5.48481 16.8285 5.00506C16.5653 4.52431 16.201 4.15437 15.7267 3.79113C15.2687 3.44035 14.6744 3.07155 13.9323 2.61097L12.2674 1.57767C11.4831 1.09089 10.8551 0.701171 10.3116 0.436843C9.74927 0.163397 9.23097 0 8.66049 0ZM5.66318 2.62161C6.4815 2.11373 7.05689 1.7575 7.53788 1.5236C8.00651 1.29571 8.33839 1.20844 8.66049 1.20844C8.9826 1.20844 9.31448 1.29571 9.7831 1.5236C10.2641 1.7575 10.8395 2.11373 11.6578 2.6216L13.2691 3.62159C14.0431 4.10201 14.5866 4.44009 14.992 4.75054C15.3864 5.05261 15.6133 5.30188 15.7685 5.58529C15.9241 5.86971 16.015 6.20224 16.0629 6.71171C16.1119 7.23339 16.1125 7.89177 16.1125 8.82477V10.0502C16.1125 11.638 16.1113 12.7701 15.9996 13.6298C15.8899 14.4742 15.6831 14.964 15.3385 15.3205C14.9966 15.6741 14.5312 15.8841 13.7245 15.9963C12.8982 16.1112 11.8085 16.1125 10.2717 16.1125H7.04924C5.51248 16.1125 4.42276 16.1112 3.5965 15.9963C2.78977 15.8841 2.32434 15.6741 1.98248 15.3205C1.63785 14.964 1.43113 14.4742 1.32138 13.6298C1.20964 12.7701 1.20844 11.638 1.20844 10.0502V8.82477C1.20844 7.89177 1.20906 7.23339 1.25808 6.71171C1.30595 6.20224 1.39683 5.86971 1.55252 5.58529C1.70765 5.30188 1.93457 5.05261 2.329 4.75054C2.73438 4.44009 3.27785 4.10201 4.05192 3.62159L5.66318 2.62161Z" fill="#8A8A8A"/>
</svg>
