<svg viewBox="0 0 42.7395 13.8567" xmlns="http://www.w3.org/2000/svg" xmlns:xlink="http://www.w3.org/1999/xlink" width="42.739502" height="13.856689" fill="none">
	<defs>
		<linearGradient id="paint_linear_0" x1="1964.88257" x2="2004.83167" y1="-27.6855202" y2="1389.73413" gradientUnits="userSpaceOnUse">
			<stop stop-color="rgb(34,35,87)" offset="0" stop-opacity="1" />
			<stop stop-color="rgb(37,74,165)" offset="1" stop-opacity="1" />
		</linearGradient>
	</defs>
	<rect id="logos:visa" width="42.739521" height="13.856786" x="0.000000" y="-0.000244" fill="rgb(255,255,255)" fill-opacity="0" />
	<path id="Vector" d="M22.1036 9.38922C22.0792 7.46664 23.817 6.39382 25.126 5.75591C26.471 5.10147 26.9227 4.68176 26.9174 4.09643C26.9074 3.20075 25.8446 2.80541 24.8501 2.79006C23.115 2.76318 22.1061 3.25851 21.3041 3.63315L20.679 0.708365C21.4837 0.337571 22.9737 0.0141907 24.5188 0C28.1458 0 30.5187 1.79036 30.5315 4.56623C30.5457 8.08919 25.6586 8.28419 25.692 9.85885C25.7035 10.3363 26.1591 10.8459 27.1575 10.9754C27.6516 11.0409 29.0158 11.0909 30.5624 10.3787L31.1694 13.2085C30.3377 13.5114 29.2687 13.8014 27.9378 13.8014C24.524 13.8014 22.1229 11.9866 22.1036 9.38922ZM37.0023 13.5576C36.34 13.5576 35.7819 13.1713 35.5328 12.5785L30.3519 0.207852L33.9762 0.207852L34.6974 2.20106L39.1262 2.20106L39.5446 0.207852L42.739 0.207852L39.9514 13.5576L37.0023 13.5576ZM37.5093 9.95134L38.5553 4.93836L35.6907 4.93836L37.5093 9.95134ZM17.7093 13.5574L14.8525 0.208019L18.3061 0.208019L21.1616 13.5578L17.7093 13.5574ZM12.6002 13.5574L9.00541 4.47123L7.55128 12.1971C7.38066 13.0596 6.70685 13.5576 5.95858 13.5576L0.082306 13.5576L0 13.17C1.20638 12.9082 2.57703 12.486 3.40743 12.0342C3.91563 11.7582 4.06054 11.517 4.22749 10.8612L6.98165 0.207852L10.6313 0.207852L16.2268 13.5576L12.6002 13.5574Z" fill="url(#paint_linear_0)" fill-rule="nonzero" transform="matrix(1,0,0,-1,0,13.8015)" />
</svg>
