<svg width="20" height="20" viewBox="0 0 20 20" fill="none" xmlns="http://www.w3.org/2000/svg">
<g clip-path="url(#clip0_1_665)">
<path d="M17.8619 8.33885H15.4806C14.8224 8.33885 14.2898 8.87144 14.2898 9.52967C14.2898 10.1879 14.8224 10.7205 15.4806 10.7205H17.8619C18.5202 10.7205 19.0528 10.1879 19.0528 9.52967C19.0528 8.87144 18.5202 8.33885 17.8619 8.33885Z" fill="#D2B48C"/>
<path d="M14.7991 5.79845L16.8619 4.60763C17.4317 4.27867 17.627 3.55048 17.2968 2.98068C16.9688 2.41087 16.2409 2.21558 15.6714 2.54454L13.6083 3.73536C13.0385 4.06432 12.8432 4.7925 13.1733 5.36201C13.5014 5.93212 14.2293 6.12741 14.7991 5.79845Z" fill="#D2B48C"/>
<path d="M16.8622 14.4524L14.7994 13.2619C14.2296 12.9329 13.5029 13.1282 13.1736 13.6978C12.8447 14.2676 13.0388 14.9954 13.6086 15.3247L15.6717 16.5155C16.2412 16.8445 16.9691 16.6492 17.2983 16.0794C17.6276 15.5096 17.432 14.7817 16.8622 14.4524Z" fill="#D2B48C"/>
<path d="M11.1732 0.0945934C10.7291 -0.0914719 10.2173 0.0121292 9.87555 0.352703L5.46119 4.76676H1.19121C0.53299 4.76676 0.000396729 5.29936 0.000396729 5.95758V13.1025C0.000396729 13.7604 0.53299 14.293 1.19121 14.293H5.46119L9.87555 18.7074C10.1036 18.9354 10.4081 19.0563 10.7175 19.0563C10.8711 19.0563 11.0256 19.0271 11.1732 18.9655C11.6186 18.7818 11.9083 18.3468 11.9083 17.8655V1.19431C11.9083 0.712925 11.6186 0.278277 11.1732 0.0945934Z" fill="#D2B48C"/>
</g>
<defs>
<clipPath id="clip0_1_665">
<rect width="19.0531" height="19.0531" fill="white"/>
</clipPath>
</defs>
</svg>
