<svg width="34" height="16" viewBox="0 0 34 16" fill="none" xmlns="http://www.w3.org/2000/svg">
<path d="M2.49593 1.87687V13.2072C2.49593 13.5294 2.60996 13.8399 2.81554 14.0774C3.02112 14.315 3.30331 14.4623 3.60644 14.4904L10.4055 15.1205C10.8139 15.1582 11.2252 15.098 11.6086 14.9442C11.992 14.7905 12.3378 14.5472 12.6202 14.2324L15.3925 11.1429C15.5773 10.937 15.7996 10.7731 16.0461 10.6611C16.2926 10.5491 16.558 10.4913 16.8262 10.4913C17.0944 10.4913 17.3598 10.5491 17.6063 10.6611C17.8528 10.7731 18.0751 10.937 18.2599 11.1429L21.0322 14.2324C21.3146 14.5472 21.6603 14.7906 22.0438 14.9443C22.4272 15.0981 22.8385 15.1583 23.2469 15.1205L30.046 14.4904C30.3491 14.4623 30.6313 14.315 30.8369 14.0774C31.0424 13.8399 31.1565 13.5294 31.1565 13.2072V1.87687C31.1564 1.53528 31.0282 1.20771 30.8 0.966161C30.5719 0.724614 30.2625 0.588863 29.9399 0.588745H3.71249C3.38984 0.588745 3.0804 0.724466 2.85225 0.966038C2.6241 1.20761 2.49593 1.53524 2.49593 1.87687Z" stroke="#D2B48C" stroke-width="1.17749" stroke-linecap="round" stroke-linejoin="round"/>
<path d="M26.7148 3.26809H6.93672C6.59214 3.26809 6.26167 3.41302 6.01801 3.67101C5.77435 3.92901 5.63747 4.27892 5.63747 4.64377C5.63747 5.00863 5.77435 5.35854 6.01801 5.61653C6.26167 5.87453 6.59214 6.01946 6.93672 6.01946H26.7148C27.0594 6.01946 27.3899 5.87453 27.6335 5.61653C27.8772 5.35854 28.0141 5.00863 28.0141 4.64377C28.0141 4.27892 27.8772 3.92901 27.6335 3.67101C27.3899 3.41302 27.0594 3.26809 26.7148 3.26809Z" stroke="#D2B48C" stroke-width="1.17749" stroke-linecap="round" stroke-linejoin="round"/>
<path d="M0.806724 4.64159C0.748912 4.64159 0.693469 4.66591 0.65259 4.70919C0.611711 4.75248 0.588745 4.81118 0.588745 4.87239V11.1161C0.588745 11.1773 0.611711 11.236 0.65259 11.2793C0.693469 11.3226 0.748912 11.3469 0.806724 11.3469H2.49586V4.64159H0.806724Z" stroke="#D2B48C" stroke-width="1.17749" stroke-linecap="round" stroke-linejoin="round"/>
<path d="M32.8463 11.3487C32.9041 11.3487 32.9595 11.3244 33.0004 11.2811C33.0413 11.2378 33.0643 11.1791 33.0643 11.1179V4.87239C33.0643 4.81118 33.0413 4.75248 33.0004 4.70919C32.9595 4.66591 32.9041 4.64159 32.8463 4.64159H31.1572V11.3487H32.8463Z" stroke="#D2B48C" stroke-width="1.17749" stroke-linecap="round" stroke-linejoin="round"/>
</svg>
